<svg version="1.1" xmlns="http://www.w3.org/2000/svg" width="1100" height="1100" viewBox="0 0 1100 1100"><path d="M0 0h960v960H0z" fill="#303030"/><path d="M507 0h453v960H507c0 -62.168 0 -62.168 17.647 -81.593a185 185 0 0 1 4.103 -3.64q2.34 -2.122 4.674 -4.248l2.39 -2.146c4.115 -3.754 8.063 -7.678 12.033 -11.584 7.502 -7.333 15.137 -14.508 22.836 -21.633 8.744 -8.109 17.32 -16.387 25.888 -24.681 13.332 -12.898 26.748 -25.702 40.302 -38.366l2.031 -1.9q2.831 -2.644 5.667 -5.284l1.627 -1.518c2.879 -2.672 5.8 -5.28 8.77 -7.85 3.81 -3.322 7.414 -6.804 10.976 -10.388l1.972 -1.97a5536 5536 0 0 0 6.461 -6.478l4.664 -4.669q5.005 -5.01 10.006 -10.024 7.916 -7.935 15.837 -15.86a80760 80760 0 0 0 22.212 -22.244l1.421 -1.423 21.387 -21.425 1.419 -1.422q11.734 -11.753 23.473 -23.504a27039 27039 0 0 0 15.73 -15.757q4.896 -4.908 9.798 -9.811l4.527 -4.54q3.1 -3.108 6.205 -6.211l1.787 -1.799c2.901 -2.894 5.856 -5.665 8.966 -8.334 4.93 -4.35 9.542 -9.05 14.191 -13.698l-329 -1V315H264c6.738 -7.861 6.738 -7.861 10.059 -11.121l2.17 -2.147 4.406 -4.328 2.174 -2.15 1.931 -1.896c1.838 -1.918 3.56 -3.865 5.285 -5.883 4.395 -5.032 9.102 -9.727 13.838 -14.436l2.925 -2.92q3.126 -3.122 6.258 -6.24 4.96 -4.94 9.912 -9.888 11.41 -11.39 22.828 -22.772 10.472 -10.44 20.937 -20.888 4.914 -4.908 9.836 -9.808a6649 6649 0 0 0 6.137 -6.124q2.081 -2.075 4.165 -4.146c4.292 -4.293 8.409 -8.652 12.366 -13.254 3.464 -3.905 7.2 -7.547 10.902 -11.226l2.688 -2.683q2.872 -2.867 5.747 -5.73 4.557 -4.537 9.106 -9.081 10.482 -10.461 20.97 -20.914 9.622 -9.59 19.235 -19.187 4.513 -4.506 9.034 -9.005 3.483 -3.47 6.962 -6.946l2.497 -2.482c4.115 -4.115 8.082 -8.286 11.836 -12.733 2.482 -2.78 5.161 -5.377 7.796 -8.012z" fill="#EA5D31"/><path d="M464 0h43c0.481 16.739 0.481 16.739 0.586 23.941 0.071 4.893 0.155 9.783 0.32 14.674 0.13 3.949 0.202 7.895 0.233 11.846q0.031 2.247 0.13 4.492c0.264 6.318 0.466 12.351 -3.774 17.444 -2.452 2.578 -5.115 4.843 -7.847 7.116 -2.486 2.243 -4.578 4.789 -6.752 7.33 -3.492 3.972 -7.275 7.657 -11.025 11.384l-2.688 2.683q-2.872 2.867 -5.747 5.73a8716 8716 0 0 0 -9.106 9.081 40582 40582 0 0 1 -20.97 20.914 33731 33731 0 0 0 -19.235 19.187q-4.513 4.505 -9.034 9.005 -3.483 3.47 -6.962 6.946l-2.497 2.482c-3.478 3.478 -6.88 6.97 -10.086 10.7 -4.228 4.909 -8.817 9.44 -13.41 14.006l-2.924 2.92q-3.126 3.122 -6.258 6.24 -4.96 4.94 -9.912 9.888a48165 48165 0 0 1 -22.828 22.772q-10.472 10.44 -20.937 20.888 -4.914 4.908 -9.836 9.808a6649 6649 0 0 0 -6.137 6.124 3102 3102 0 0 1 -4.165 4.146l-2.548 2.548 -2.187 2.181c-3.245 3.407 -6.306 6.984 -9.404 10.524l-17 17 242 1v260h330c-3.742 4.366 -7.332 8.469 -11.375 12.5l-2.648 2.656c-2.173 2.12 -4.428 4.115 -6.729 6.095 -3.882 3.387 -7.561 6.927 -11.192 10.58l-1.972 1.97a5536 5536 0 0 0 -6.461 6.478l-4.664 4.669q-5.005 5.01 -10.006 10.024 -7.916 7.934 -15.837 15.86a80760 80760 0 0 0 -22.212 22.244l-1.421 1.423 -21.387 21.425 -1.419 1.422q-11.734 11.753 -23.473 23.504a27039 27039 0 0 0 -15.73 15.757q-4.896 4.908 -9.798 9.811l-4.527 4.54a4697 4697 0 0 1 -6.205 6.211l-1.787 1.799c-3.62 3.611 -7.372 7.019 -11.24 10.364 -2.743 2.387 -5.412 4.85 -8.073 7.327 -0.566 0.525 -1.132 1.05 -1.714 1.592a4469 4469 0 0 0 -5.599 5.215l-1.995 1.86c-13.036 12.162 -25.912 24.49 -38.729 36.883 -8.14 7.863 -16.323 15.666 -24.638 23.343 -42.298 35.352 -42.298 35.352 -63.007 83.734 -0.472 12.261 1.226 23.757 3.838 35.714h-43c-0.602 -17.118 -0.602 -17.118 -0.732 -24.506 -0.09 -5.012 -0.194 -10.02 -0.4 -15.028 -1.228 -30.75 -1.228 -30.75 6.174 -38.975a60.6 60.6 0 0 1 7.842 -6.05c7.792 -5.308 14.285 -12.477 20.903 -19.13l3.186 -3.191a7919 7919 0 0 0 6.815 -6.833q5.394 -5.412 10.795 -10.82 11.462 -11.48 22.917 -22.967 12.37 -12.406 24.748 -24.801 5.36 -5.367 10.711 -10.74a7934 7934 0 0 1 6.685 -6.698q1.54 -1.542 3.076 -3.087c8.687 -8.732 8.687 -8.732 13.273 -12.667 5.234 -4.493 10.04 -9.417 14.902 -14.304l3.22 -3.225q3.447 -3.45 6.888 -6.906 5.452 -5.47 10.909 -10.933 11.579 -11.597 23.15 -23.202 12.501 -12.535 25.011 -25.064 5.417 -5.424 10.828 -10.855 3.372 -3.384 6.75 -6.763 1.557 -1.56 3.11 -3.123c5.249 -5.274 10.521 -10.37 16.239 -15.132 2.724 -2.603 4.91 -4.865 7 -8H464V366H142l5 -5 3.926 -3.96 4.387 -4.415c0.72 -0.73 1.442 -1.46 2.185 -2.21a223 223 0 0 1 12.589 -11.722c3.114 -2.756 6.005 -5.722 8.913 -8.693 4.164 -4.212 8.353 -8.273 12.879 -12.098 2.992 -2.684 5.795 -5.544 8.621 -8.402 3.39 -3.428 6.752 -6.823 10.438 -9.937 3.905 -3.309 7.465 -6.928 11.062 -10.563 4.166 -4.21 8.353 -8.272 12.879 -12.098 2.992 -2.684 5.795 -5.544 8.621 -8.402 3.39 -3.428 6.752 -6.823 10.438 -9.937 3.905 -3.309 7.465 -6.928 11.062 -10.563 4.145 -4.188 8.31 -8.227 12.813 -12.031 3.84 -3.457 7.419 -7.182 11.052 -10.854 3.55 -3.572 7.167 -6.961 11.014 -10.213 2.992 -2.684 5.795 -5.544 8.621 -8.402 3.39 -3.428 6.752 -6.823 10.438 -9.937 3.905 -3.309 7.465 -6.928 11.062 -10.563 4.166 -4.21 8.353 -8.272 12.879 -12.098 2.992 -2.684 5.795 -5.544 8.621 -8.402 3.39 -3.428 6.752 -6.823 10.438 -9.937 3.905 -3.309 7.465 -6.928 11.062 -10.563 4.166 -4.21 8.353 -8.272 12.879 -12.098 2.992 -2.684 5.795 -5.544 8.621 -8.402 3.39 -3.428 6.752 -6.823 10.438 -9.937 3.905 -3.309 7.465 -6.928 11.062 -10.563 4.166 -4.21 8.353 -8.272 12.879 -12.098 3.597 -3.226 6.943 -6.705 10.34 -10.14 2.886 -2.906 5.786 -5.729 8.906 -8.387l1.702 -1.55C452 70 452 70 454.743 68.325c4.709 -3.46 7.662 -6.458 8.88 -12.33 0.885 -8.344 0.75 -16.723 0.596 -25.1 -0.053 -3.487 -0.043 -6.973 -0.037 -10.46 0.006 -6.815 -0.09 -13.618 -0.182 -20.435" fill="#000000"/></svg>