<?xml version="1.0" encoding="UTF-8"?>
<svg version="1.1" xmlns="http://www.w3.org/2000/svg" width="48" height="48">
<path d="M0 0 C0.28875 0.94875 0.5775 1.8975 0.875 2.875 C1.76825109 6.05211578 1.76825109 6.05211578 4 8 C4.33 5.69 4.66 3.38 5 1 C6.32 1 7.64 1 9 1 C9 6.28 9 11.56 9 17 C3.72 17 -1.56 17 -7 17 C-7 15.68 -7 14.36 -7 13 C-3.535 12.505 -3.535 12.505 0 12 C-2.39509338 9.10067643 -4.31245243 8.49831724 -8 8 C-8 4 -8 4 -6.25 1.75 C-4 0 -4 0 0 0 Z " fill="#FDBE09" transform="translate(33,25)"/>
<path d="M0 0 C5.28 0 10.56 0 16 0 C16 5.28 16 10.56 16 16 C14.68 16 13.36 16 12 16 C11.67 13.69 11.34 11.38 11 9 C8.10067643 11.39509338 7.49831724 13.31245243 7 17 C3 17 3 17 0.75 15.25 C-1 13 -1 13 -1 9 C-0.05125 8.71125 0.8975 8.4225 1.875 8.125 C5.05211578 7.23174891 5.05211578 7.23174891 7 5 C4.69 4.67 2.38 4.34 0 4 C0 2.68 0 1.36 0 0 Z " fill="#FECD13" transform="translate(26,6)"/>
<path d="M0 0 C5.28 0 10.56 0 16 0 C16 1.32 16 2.64 16 4 C13.69 4.33 11.38 4.66 9 5 C11.39509338 7.89932357 13.31245243 8.50168276 17 9 C17 13 17 13 15.25 15.25 C13 17 13 17 9 17 C8.71125 16.05125 8.4225 15.1025 8.125 14.125 C7.23174891 10.94788422 7.23174891 10.94788422 5 9 C4.67 11.31 4.34 13.62 4 16 C2.68 16 1.36 16 0 16 C0 10.72 0 5.44 0 0 Z " fill="#FFD116" transform="translate(6,6)"/>
</svg>
