<svg xmlns="http://www.w3.org/2000/svg" version="1.1" xmlns:xlink="http://www.w3.org/1999/xlink" xmlns:svgjs="http://svgjs.dev/svgjs" viewBox="0 0 800 800" width="800" height="800"><g stroke-width="6.25" stroke="#000000" fill="none"><rect width="23.157894736842106" height="23.157894736842106" x="-11.578947368421053" y="-11.578947368421053" fill="#000000" stroke="none"></rect><rect width="23.157894736842106" height="23.157894736842106" x="32.86549707602339" y="-11.578947368421053" fill="#000000" stroke="none"></rect><rect width="23.157894736842106" height="23.157894736842106" x="77.30994152046783" y="-11.578947368421053" fill="#000000" stroke="none"></rect><rect width="23.157894736842106" height="23.157894736842106" x="121.75438596491226" y="-11.578947368421053" fill="#000000" stroke="none"></rect><rect width="23.157894736842106" height="23.157894736842106" x="166.19883040935673" y="-11.578947368421053" fill="#000000" stroke="none"></rect><rect width="23.157894736842106" height="23.157894736842106" x="210.6432748538012" y="-11.578947368421053" fill="#000000" stroke="none"></rect><rect width="23.157894736842106" height="23.157894736842106" x="255.08771929824564" y="-11.578947368421053" fill="#000000" stroke="none"></rect><rect width="23.157894736842106" height="23.157894736842106" x="299.5321637426901" y="-11.578947368421053" fill="#000000" stroke="none"></rect><rect width="23.157894736842106" height="23.157894736842106" x="343.97660818713456" y="-11.578947368421053" fill="#000000" stroke="none"></rect><rect width="23.157894736842106" height="23.157894736842106" x="388.421052631579" y="-11.578947368421053" fill="#000000" stroke="none"></rect><rect width="23.157894736842106" height="23.157894736842106" x="432.8654970760235" y="-11.578947368421053" fill="#000000" stroke="none"></rect><rect width="23.157894736842106" height="23.157894736842106" x="477.30994152046793" y="-11.578947368421053" fill="#000000" stroke="none"></rect><rect width="23.157894736842106" height="23.157894736842106" x="521.7543859649123" y="-11.578947368421053" fill="#000000" stroke="none"></rect><rect width="23.157894736842106" height="23.157894736842106" x="566.1988304093568" y="-11.578947368421053" fill="#000000" stroke="none"></rect><rect width="23.157894736842106" height="23.157894736842106" x="610.6432748538012" y="-11.578947368421053" fill="#000000" stroke="none"></rect><rect width="23.157894736842106" height="23.157894736842106" x="655.0877192982457" y="-11.578947368421053" fill="#000000" stroke="none"></rect><rect width="23.157894736842106" height="23.157894736842106" x="699.5321637426902" y="-11.578947368421053" fill="#000000" stroke="none"></rect><rect width="23.157894736842106" height="23.157894736842106" x="743.9766081871346" y="-11.578947368421053" fill="#000000" stroke="none"></rect><rect width="23.157894736842106" height="23.157894736842106" x="788.4210526315791" y="-11.578947368421053" fill="#000000" stroke="none"></rect><rect width="23.157894736842106" height="23.157894736842106" x="-11.578947368421053" y="32.86549707602339" fill="#000000" stroke="none"></rect><rect width="23.157894736842106" height="23.157894736842106" x="32.86549707602339" y="32.86549707602339" fill="#000000" stroke="none"></rect><rect width="23.157894736842106" height="23.157894736842106" x="77.30994152046783" y="32.86549707602339" fill="#000000" stroke="none"></rect><rect width="23.157894736842106" height="23.157894736842106" x="121.75438596491226" y="32.86549707602339" fill="#000000" stroke="none"></rect><rect width="23.157894736842106" height="23.157894736842106" x="166.19883040935673" y="32.86549707602339" fill="#000000" stroke="none"></rect><rect width="23.157894736842106" height="23.157894736842106" x="210.6432748538012" y="32.86549707602339" fill="#000000" stroke="none"></rect><rect width="23.157894736842106" height="23.157894736842106" x="255.08771929824564" y="32.86549707602339" fill="#000000" stroke="none"></rect><rect width="23.157894736842106" height="23.157894736842106" x="299.5321637426901" y="32.86549707602339" fill="#000000" stroke="none"></rect><rect width="23.157894736842106" height="23.157894736842106" x="343.97660818713456" y="32.86549707602339" fill="#000000" stroke="none"></rect><rect width="23.157894736842106" height="23.157894736842106" x="388.421052631579" y="32.86549707602339" fill="#000000" stroke="none"></rect><rect width="23.157894736842106" height="23.157894736842106" x="432.8654970760235" y="32.86549707602339" fill="#000000" stroke="none"></rect><rect width="23.157894736842106" height="23.157894736842106" x="477.30994152046793" y="32.86549707602339" fill="#000000" stroke="none"></rect><rect width="23.157894736842106" height="23.157894736842106" x="521.7543859649123" y="32.86549707602339" fill="#000000" stroke="none"></rect><rect width="23.157894736842106" height="23.157894736842106" x="566.1988304093568" y="32.86549707602339" fill="#000000" stroke="none"></rect><rect width="23.157894736842106" height="23.157894736842106" x="610.6432748538012" y="32.86549707602339" fill="#000000" stroke="none"></rect><rect width="23.157894736842106" height="23.157894736842106" x="655.0877192982457" y="32.86549707602339" fill="#000000" stroke="none"></rect><rect width="23.157894736842106" height="23.157894736842106" x="699.5321637426902" y="32.86549707602339" fill="#000000" stroke="none"></rect><rect width="23.157894736842106" height="23.157894736842106" x="743.9766081871346" y="32.86549707602339" fill="#000000" stroke="none"></rect><rect width="23.157894736842106" height="23.157894736842106" x="788.4210526315791" y="32.86549707602339" fill="#000000" stroke="none"></rect><rect width="23.157894736842106" height="23.157894736842106" x="-11.578947368421053" y="77.30994152046783" fill="#000000" stroke="none"></rect><rect width="23.157894736842106" height="23.157894736842106" x="32.86549707602339" y="77.30994152046783" fill="#000000" stroke="none"></rect><rect width="23.157894736842106" height="23.157894736842106" x="77.30994152046783" y="77.30994152046783" fill="#000000" stroke="none"></rect><rect width="23.157894736842106" height="23.157894736842106" x="121.75438596491226" y="77.30994152046783" fill="#000000" stroke="none"></rect><rect width="23.157894736842106" height="23.157894736842106" x="166.19883040935673" y="77.30994152046783" fill="#000000" stroke="none"></rect><rect width="23.157894736842106" height="23.157894736842106" x="210.6432748538012" y="77.30994152046783" fill="#000000" stroke="none"></rect><rect width="23.157894736842106" height="23.157894736842106" x="255.08771929824564" y="77.30994152046783" fill="#000000" stroke="none"></rect><rect width="23.157894736842106" height="23.157894736842106" x="299.5321637426901" y="77.30994152046783" fill="#000000" stroke="none"></rect><rect width="23.157894736842106" height="23.157894736842106" x="343.97660818713456" y="77.30994152046783" fill="#000000" stroke="none"></rect><rect width="23.157894736842106" height="23.157894736842106" x="388.421052631579" y="77.30994152046783" fill="#000000" stroke="none"></rect><rect width="23.157894736842106" height="23.157894736842106" x="432.8654970760235" y="77.30994152046783" fill="#000000" stroke="none"></rect><rect width="23.157894736842106" height="23.157894736842106" x="477.30994152046793" y="77.30994152046783" fill="#000000" stroke="none"></rect><rect width="23.157894736842106" height="23.157894736842106" x="521.7543859649123" y="77.30994152046783" fill="#000000" stroke="none"></rect><rect width="23.157894736842106" height="23.157894736842106" x="566.1988304093568" y="77.30994152046783" fill="#000000" stroke="none"></rect><rect width="23.157894736842106" height="23.157894736842106" x="610.6432748538012" y="77.30994152046783" fill="#000000" stroke="none"></rect><rect width="23.157894736842106" height="23.157894736842106" x="655.0877192982457" y="77.30994152046783" fill="#000000" stroke="none"></rect><rect width="23.157894736842106" height="23.157894736842106" x="699.5321637426902" y="77.30994152046783" fill="#000000" stroke="none"></rect><rect width="23.157894736842106" height="23.157894736842106" x="743.9766081871346" y="77.30994152046783" fill="#000000" stroke="none"></rect><rect width="23.157894736842106" height="23.157894736842106" x="788.4210526315791" y="77.30994152046783" fill="#000000" stroke="none"></rect><rect width="23.157894736842106" height="23.157894736842106" x="-11.578947368421053" y="121.75438596491226" fill="#000000" stroke="none"></rect><rect width="23.157894736842106" height="23.157894736842106" x="32.86549707602339" y="121.75438596491226" fill="#000000" stroke="none"></rect><rect width="23.157894736842106" height="23.157894736842106" x="77.30994152046783" y="121.75438596491226" fill="#000000" stroke="none"></rect><rect width="23.157894736842106" height="23.157894736842106" x="121.75438596491226" y="121.75438596491226" fill="#000000" stroke="none"></rect><rect width="23.157894736842106" height="23.157894736842106" x="166.19883040935673" y="121.75438596491226" fill="#000000" stroke="none"></rect><rect width="23.157894736842106" height="23.157894736842106" x="210.6432748538012" y="121.75438596491226" fill="#000000" stroke="none"></rect><rect width="23.157894736842106" height="23.157894736842106" x="255.08771929824564" y="121.75438596491226" fill="#000000" stroke="none"></rect><rect width="23.157894736842106" height="23.157894736842106" x="299.5321637426901" y="121.75438596491226" fill="#000000" stroke="none"></rect><rect width="23.157894736842106" height="23.157894736842106" x="343.97660818713456" y="121.75438596491226" fill="#000000" stroke="none"></rect><rect width="23.157894736842106" height="23.157894736842106" x="388.421052631579" y="121.75438596491226" fill="#000000" stroke="none"></rect><rect width="23.157894736842106" height="23.157894736842106" x="432.8654970760235" y="121.75438596491226" fill="#000000" stroke="none"></rect><rect width="23.157894736842106" height="23.157894736842106" x="477.30994152046793" y="121.75438596491226" fill="#000000" stroke="none"></rect><rect width="23.157894736842106" height="23.157894736842106" x="521.7543859649123" y="121.75438596491226" fill="#000000" stroke="none"></rect><rect width="23.157894736842106" height="23.157894736842106" x="566.1988304093568" y="121.75438596491226" fill="#000000" stroke="none"></rect><rect width="23.157894736842106" height="23.157894736842106" x="610.6432748538012" y="121.75438596491226" fill="#000000" stroke="none"></rect><rect width="23.157894736842106" height="23.157894736842106" x="655.0877192982457" y="121.75438596491226" fill="#000000" stroke="none"></rect><rect width="23.157894736842106" height="23.157894736842106" x="699.5321637426902" y="121.75438596491226" fill="#000000" stroke="none"></rect><rect width="23.157894736842106" height="23.157894736842106" x="743.9766081871346" y="121.75438596491226" fill="#000000" stroke="none"></rect><rect width="23.157894736842106" height="23.157894736842106" x="788.4210526315791" y="121.75438596491226" fill="#000000" stroke="none"></rect><rect width="23.157894736842106" height="23.157894736842106" x="-11.578947368421053" y="166.19883040935673" fill="#000000" stroke="none"></rect><rect width="23.157894736842106" height="23.157894736842106" x="32.86549707602339" y="166.19883040935673" fill="#000000" stroke="none"></rect><rect width="23.157894736842106" height="23.157894736842106" x="77.30994152046783" y="166.19883040935673" fill="#000000" stroke="none"></rect><rect width="23.157894736842106" height="23.157894736842106" x="121.75438596491226" y="166.19883040935673" fill="#000000" stroke="none"></rect><rect width="23.157894736842106" height="23.157894736842106" x="166.19883040935673" y="166.19883040935673" fill="#000000" stroke="none"></rect><rect width="23.157894736842106" height="23.157894736842106" x="210.6432748538012" y="166.19883040935673" fill="#000000" stroke="none"></rect><rect width="23.157894736842106" height="23.157894736842106" x="255.08771929824564" y="166.19883040935673" fill="#000000" stroke="none"></rect><rect width="23.157894736842106" height="23.157894736842106" x="299.5321637426901" y="166.19883040935673" fill="#000000" stroke="none"></rect><rect width="23.157894736842106" height="23.157894736842106" x="343.97660818713456" y="166.19883040935673" fill="#000000" stroke="none"></rect><rect width="23.157894736842106" height="23.157894736842106" x="388.421052631579" y="166.19883040935673" fill="#000000" stroke="none"></rect><rect width="23.157894736842106" height="23.157894736842106" x="432.8654970760235" y="166.19883040935673" fill="#000000" stroke="none"></rect><rect width="23.157894736842106" height="23.157894736842106" x="477.30994152046793" y="166.19883040935673" fill="#000000" stroke="none"></rect><rect width="23.157894736842106" height="23.157894736842106" x="521.7543859649123" y="166.19883040935673" fill="#000000" stroke="none"></rect><rect width="23.157894736842106" height="23.157894736842106" x="566.1988304093568" y="166.19883040935673" fill="#000000" stroke="none"></rect><rect width="23.157894736842106" height="23.157894736842106" x="610.6432748538012" y="166.19883040935673" fill="#000000" stroke="none"></rect><rect width="23.157894736842106" height="23.157894736842106" x="655.0877192982457" y="166.19883040935673" fill="#000000" stroke="none"></rect><rect width="23.157894736842106" height="23.157894736842106" x="699.5321637426902" y="166.19883040935673" fill="#000000" stroke="none"></rect><rect width="23.157894736842106" height="23.157894736842106" x="743.9766081871346" y="166.19883040935673" fill="#000000" stroke="none"></rect><rect width="23.157894736842106" height="23.157894736842106" x="788.4210526315791" y="166.19883040935673" fill="#000000" stroke="none"></rect><rect width="23.157894736842106" height="23.157894736842106" x="-11.578947368421053" y="210.6432748538012" fill="#000000" stroke="none"></rect><rect width="23.157894736842106" height="23.157894736842106" x="32.86549707602339" y="210.6432748538012" fill="#000000" stroke="none"></rect><rect width="23.157894736842106" height="23.157894736842106" x="77.30994152046783" y="210.6432748538012" fill="#000000" stroke="none"></rect><rect width="23.157894736842106" height="23.157894736842106" x="121.75438596491226" y="210.6432748538012" fill="#000000" stroke="none"></rect><rect width="23.157894736842106" height="23.157894736842106" x="166.19883040935673" y="210.6432748538012" fill="#000000" stroke="none"></rect><rect width="23.157894736842106" height="23.157894736842106" x="210.6432748538012" y="210.6432748538012" fill="#000000" stroke="none"></rect><rect width="23.157894736842106" height="23.157894736842106" x="255.08771929824564" y="210.6432748538012" fill="#000000" stroke="none"></rect><rect width="23.157894736842106" height="23.157894736842106" x="299.5321637426901" y="210.6432748538012" fill="#000000" stroke="none"></rect><rect width="23.157894736842106" height="23.157894736842106" x="343.97660818713456" y="210.6432748538012" fill="#000000" stroke="none"></rect><rect width="23.157894736842106" height="23.157894736842106" x="388.421052631579" y="210.6432748538012" fill="#000000" stroke="none"></rect><rect width="23.157894736842106" height="23.157894736842106" x="432.8654970760235" y="210.6432748538012" fill="#000000" stroke="none"></rect><rect width="23.157894736842106" height="23.157894736842106" x="477.30994152046793" y="210.6432748538012" fill="#000000" stroke="none"></rect><rect width="23.157894736842106" height="23.157894736842106" x="521.7543859649123" y="210.6432748538012" fill="#000000" stroke="none"></rect><rect width="23.157894736842106" height="23.157894736842106" x="566.1988304093568" y="210.6432748538012" fill="#000000" stroke="none"></rect><rect width="23.157894736842106" height="23.157894736842106" x="610.6432748538012" y="210.6432748538012" fill="#000000" stroke="none"></rect><rect width="23.157894736842106" height="23.157894736842106" x="655.0877192982457" y="210.6432748538012" fill="#000000" stroke="none"></rect><rect width="23.157894736842106" height="23.157894736842106" x="699.5321637426902" y="210.6432748538012" fill="#000000" stroke="none"></rect><rect width="23.157894736842106" height="23.157894736842106" x="743.9766081871346" y="210.6432748538012" fill="#000000" stroke="none"></rect><rect width="23.157894736842106" height="23.157894736842106" x="788.4210526315791" y="210.6432748538012" fill="#000000" stroke="none"></rect><rect width="23.157894736842106" height="23.157894736842106" x="-11.578947368421053" y="255.08771929824564" fill="#000000" stroke="none"></rect><rect width="23.157894736842106" height="23.157894736842106" x="32.86549707602339" y="255.08771929824564" fill="#000000" stroke="none"></rect><rect width="23.157894736842106" height="23.157894736842106" x="77.30994152046783" y="255.08771929824564" fill="#000000" stroke="none"></rect><rect width="23.157894736842106" height="23.157894736842106" x="121.75438596491226" y="255.08771929824564" fill="#000000" stroke="none"></rect><rect width="23.157894736842106" height="23.157894736842106" x="166.19883040935673" y="255.08771929824564" fill="#000000" stroke="none"></rect><rect width="23.157894736842106" height="23.157894736842106" x="210.6432748538012" y="255.08771929824564" fill="#000000" stroke="none"></rect><rect width="23.157894736842106" height="23.157894736842106" x="255.08771929824564" y="255.08771929824564" fill="#000000" stroke="none"></rect><rect width="23.157894736842106" height="23.157894736842106" x="299.5321637426901" y="255.08771929824564" fill="#000000" stroke="none"></rect><rect width="23.157894736842106" height="23.157894736842106" x="343.97660818713456" y="255.08771929824564" fill="#000000" stroke="none"></rect><rect width="23.157894736842106" height="23.157894736842106" x="388.421052631579" y="255.08771929824564" fill="#000000" stroke="none"></rect><rect width="23.157894736842106" height="23.157894736842106" x="432.8654970760235" y="255.08771929824564" fill="#000000" stroke="none"></rect><rect width="23.157894736842106" height="23.157894736842106" x="477.30994152046793" y="255.08771929824564" fill="#000000" stroke="none"></rect><rect width="23.157894736842106" height="23.157894736842106" x="521.7543859649123" y="255.08771929824564" fill="#000000" stroke="none"></rect><rect width="23.157894736842106" height="23.157894736842106" x="566.1988304093568" y="255.08771929824564" fill="#000000" stroke="none"></rect><rect width="23.157894736842106" height="23.157894736842106" x="610.6432748538012" y="255.08771929824564" fill="#000000" stroke="none"></rect><rect width="23.157894736842106" height="23.157894736842106" x="655.0877192982457" y="255.08771929824564" fill="#000000" stroke="none"></rect><rect width="23.157894736842106" height="23.157894736842106" x="699.5321637426902" y="255.08771929824564" fill="#000000" stroke="none"></rect><rect width="23.157894736842106" height="23.157894736842106" x="743.9766081871346" y="255.08771929824564" fill="#000000" stroke="none"></rect><rect width="23.157894736842106" height="23.157894736842106" x="788.4210526315791" y="255.08771929824564" fill="#000000" stroke="none"></rect><rect width="23.157894736842106" height="23.157894736842106" x="-11.578947368421053" y="299.5321637426901" fill="#000000" stroke="none"></rect><rect width="23.157894736842106" height="23.157894736842106" x="32.86549707602339" y="299.5321637426901" fill="#000000" stroke="none"></rect><rect width="23.157894736842106" height="23.157894736842106" x="77.30994152046783" y="299.5321637426901" fill="#000000" stroke="none"></rect><rect width="23.157894736842106" height="23.157894736842106" x="121.75438596491226" y="299.5321637426901" fill="#000000" stroke="none"></rect><rect width="23.157894736842106" height="23.157894736842106" x="166.19883040935673" y="299.5321637426901" fill="#000000" stroke="none"></rect><rect width="23.157894736842106" height="23.157894736842106" x="210.6432748538012" y="299.5321637426901" fill="#000000" stroke="none"></rect><rect width="23.157894736842106" height="23.157894736842106" x="255.08771929824564" y="299.5321637426901" fill="#000000" stroke="none"></rect><rect width="23.157894736842106" height="23.157894736842106" x="299.5321637426901" y="299.5321637426901" fill="#000000" stroke="none"></rect><rect width="23.157894736842106" height="23.157894736842106" x="343.97660818713456" y="299.5321637426901" fill="#000000" stroke="none"></rect><rect width="23.157894736842106" height="23.157894736842106" x="388.421052631579" y="299.5321637426901" fill="#000000" stroke="none"></rect><rect width="23.157894736842106" height="23.157894736842106" x="432.8654970760235" y="299.5321637426901" fill="#000000" stroke="none"></rect><rect width="23.157894736842106" height="23.157894736842106" x="477.30994152046793" y="299.5321637426901" fill="#000000" stroke="none"></rect><rect width="23.157894736842106" height="23.157894736842106" x="521.7543859649123" y="299.5321637426901" fill="#000000" stroke="none"></rect><rect width="23.157894736842106" height="23.157894736842106" x="566.1988304093568" y="299.5321637426901" fill="#000000" stroke="none"></rect><rect width="23.157894736842106" height="23.157894736842106" x="610.6432748538012" y="299.5321637426901" fill="#000000" stroke="none"></rect><rect width="23.157894736842106" height="23.157894736842106" x="655.0877192982457" y="299.5321637426901" fill="#000000" stroke="none"></rect><rect width="23.157894736842106" height="23.157894736842106" x="699.5321637426902" y="299.5321637426901" fill="#000000" stroke="none"></rect><rect width="23.157894736842106" height="23.157894736842106" x="743.9766081871346" y="299.5321637426901" fill="#000000" stroke="none"></rect><rect width="23.157894736842106" height="23.157894736842106" x="788.4210526315791" y="299.5321637426901" fill="#000000" stroke="none"></rect><rect width="23.157894736842106" height="23.157894736842106" x="-11.578947368421053" y="343.97660818713456" fill="#000000" stroke="none"></rect><rect width="23.157894736842106" height="23.157894736842106" x="32.86549707602339" y="343.97660818713456" fill="#000000" stroke="none"></rect><rect width="23.157894736842106" height="23.157894736842106" x="77.30994152046783" y="343.97660818713456" fill="#000000" stroke="none"></rect><rect width="23.157894736842106" height="23.157894736842106" x="121.75438596491226" y="343.97660818713456" fill="#000000" stroke="none"></rect><rect width="23.157894736842106" height="23.157894736842106" x="166.19883040935673" y="343.97660818713456" fill="#000000" stroke="none"></rect><rect width="23.157894736842106" height="23.157894736842106" x="210.6432748538012" y="343.97660818713456" fill="#000000" stroke="none"></rect><rect width="23.157894736842106" height="23.157894736842106" x="255.08771929824564" y="343.97660818713456" fill="#000000" stroke="none"></rect><rect width="23.157894736842106" height="23.157894736842106" x="299.5321637426901" y="343.97660818713456" fill="#000000" stroke="none"></rect><rect width="23.157894736842106" height="23.157894736842106" x="343.97660818713456" y="343.97660818713456" fill="#000000" stroke="none"></rect><rect width="23.157894736842106" height="23.157894736842106" x="388.421052631579" y="343.97660818713456" fill="#000000" stroke="none"></rect><rect width="23.157894736842106" height="23.157894736842106" x="432.8654970760235" y="343.97660818713456" fill="#000000" stroke="none"></rect><rect width="23.157894736842106" height="23.157894736842106" x="477.30994152046793" y="343.97660818713456" fill="#000000" stroke="none"></rect><rect width="23.157894736842106" height="23.157894736842106" x="521.7543859649123" y="343.97660818713456" fill="#000000" stroke="none"></rect><rect width="23.157894736842106" height="23.157894736842106" x="566.1988304093568" y="343.97660818713456" fill="#000000" stroke="none"></rect><rect width="23.157894736842106" height="23.157894736842106" x="610.6432748538012" y="343.97660818713456" fill="#000000" stroke="none"></rect><rect width="23.157894736842106" height="23.157894736842106" x="655.0877192982457" y="343.97660818713456" fill="#000000" stroke="none"></rect><rect width="23.157894736842106" height="23.157894736842106" x="699.5321637426902" y="343.97660818713456" fill="#000000" stroke="none"></rect><rect width="23.157894736842106" height="23.157894736842106" x="743.9766081871346" y="343.97660818713456" fill="#000000" stroke="none"></rect><rect width="23.157894736842106" height="23.157894736842106" x="788.4210526315791" y="343.97660818713456" fill="#000000" stroke="none"></rect><rect width="23.157894736842106" height="23.157894736842106" x="-11.578947368421053" y="388.421052631579" fill="#000000" stroke="none"></rect><rect width="23.157894736842106" height="23.157894736842106" x="32.86549707602339" y="388.421052631579" fill="#000000" stroke="none"></rect><rect width="23.157894736842106" height="23.157894736842106" x="77.30994152046783" y="388.421052631579" fill="#000000" stroke="none"></rect><rect width="23.157894736842106" height="23.157894736842106" x="121.75438596491226" y="388.421052631579" fill="#000000" stroke="none"></rect><rect width="23.157894736842106" height="23.157894736842106" x="166.19883040935673" y="388.421052631579" fill="#000000" stroke="none"></rect><rect width="23.157894736842106" height="23.157894736842106" x="210.6432748538012" y="388.421052631579" fill="#000000" stroke="none"></rect><rect width="23.157894736842106" height="23.157894736842106" x="255.08771929824564" y="388.421052631579" fill="#000000" stroke="none"></rect><rect width="23.157894736842106" height="23.157894736842106" x="299.5321637426901" y="388.421052631579" fill="#000000" stroke="none"></rect><rect width="23.157894736842106" height="23.157894736842106" x="343.97660818713456" y="388.421052631579" fill="#000000" stroke="none"></rect><rect width="23.157894736842106" height="23.157894736842106" x="388.421052631579" y="388.421052631579" fill="#000000" stroke="none"></rect><rect width="23.157894736842106" height="23.157894736842106" x="432.8654970760235" y="388.421052631579" fill="#000000" stroke="none"></rect><rect width="23.157894736842106" height="23.157894736842106" x="477.30994152046793" y="388.421052631579" fill="#000000" stroke="none"></rect><rect width="23.157894736842106" height="23.157894736842106" x="521.7543859649123" y="388.421052631579" fill="#000000" stroke="none"></rect><rect width="23.157894736842106" height="23.157894736842106" x="566.1988304093568" y="388.421052631579" fill="#000000" stroke="none"></rect><rect width="23.157894736842106" height="23.157894736842106" x="610.6432748538012" y="388.421052631579" fill="#000000" stroke="none"></rect><rect width="23.157894736842106" height="23.157894736842106" x="655.0877192982457" y="388.421052631579" fill="#000000" stroke="none"></rect><rect width="23.157894736842106" height="23.157894736842106" x="699.5321637426902" y="388.421052631579" fill="#000000" stroke="none"></rect><rect width="23.157894736842106" height="23.157894736842106" x="743.9766081871346" y="388.421052631579" fill="#000000" stroke="none"></rect><rect width="23.157894736842106" height="23.157894736842106" x="788.4210526315791" y="388.421052631579" fill="#000000" stroke="none"></rect><rect width="23.157894736842106" height="23.157894736842106" x="-11.578947368421053" y="432.8654970760235" fill="#000000" stroke="none"></rect><rect width="23.157894736842106" height="23.157894736842106" x="32.86549707602339" y="432.8654970760235" fill="#000000" stroke="none"></rect><rect width="23.157894736842106" height="23.157894736842106" x="77.30994152046783" y="432.8654970760235" fill="#000000" stroke="none"></rect><rect width="23.157894736842106" height="23.157894736842106" x="121.75438596491226" y="432.8654970760235" fill="#000000" stroke="none"></rect><rect width="23.157894736842106" height="23.157894736842106" x="166.19883040935673" y="432.8654970760235" fill="#000000" stroke="none"></rect><rect width="23.157894736842106" height="23.157894736842106" x="210.6432748538012" y="432.8654970760235" fill="#000000" stroke="none"></rect><rect width="23.157894736842106" height="23.157894736842106" x="255.08771929824564" y="432.8654970760235" fill="#000000" stroke="none"></rect><rect width="23.157894736842106" height="23.157894736842106" x="299.5321637426901" y="432.8654970760235" fill="#000000" stroke="none"></rect><rect width="23.157894736842106" height="23.157894736842106" x="343.97660818713456" y="432.8654970760235" fill="#000000" stroke="none"></rect><rect width="23.157894736842106" height="23.157894736842106" x="388.421052631579" y="432.8654970760235" fill="#000000" stroke="none"></rect><rect width="23.157894736842106" height="23.157894736842106" x="432.8654970760235" y="432.8654970760235" fill="#000000" stroke="none"></rect><rect width="23.157894736842106" height="23.157894736842106" x="477.30994152046793" y="432.8654970760235" fill="#000000" stroke="none"></rect><rect width="23.157894736842106" height="23.157894736842106" x="521.7543859649123" y="432.8654970760235" fill="#000000" stroke="none"></rect><rect width="23.157894736842106" height="23.157894736842106" x="566.1988304093568" y="432.8654970760235" fill="#000000" stroke="none"></rect><rect width="23.157894736842106" height="23.157894736842106" x="610.6432748538012" y="432.8654970760235" fill="#000000" stroke="none"></rect><rect width="23.157894736842106" height="23.157894736842106" x="655.0877192982457" y="432.8654970760235" fill="#000000" stroke="none"></rect><rect width="23.157894736842106" height="23.157894736842106" x="699.5321637426902" y="432.8654970760235" fill="#000000" stroke="none"></rect><rect width="23.157894736842106" height="23.157894736842106" x="743.9766081871346" y="432.8654970760235" fill="#000000" stroke="none"></rect><rect width="23.157894736842106" height="23.157894736842106" x="788.4210526315791" y="432.8654970760235" fill="#000000" stroke="none"></rect><rect width="23.157894736842106" height="23.157894736842106" x="-11.578947368421053" y="477.30994152046793" fill="#000000" stroke="none"></rect><rect width="23.157894736842106" height="23.157894736842106" x="32.86549707602339" y="477.30994152046793" fill="#000000" stroke="none"></rect><rect width="23.157894736842106" height="23.157894736842106" x="77.30994152046783" y="477.30994152046793" fill="#000000" stroke="none"></rect><rect width="23.157894736842106" height="23.157894736842106" x="121.75438596491226" y="477.30994152046793" fill="#000000" stroke="none"></rect><rect width="23.157894736842106" height="23.157894736842106" x="166.19883040935673" y="477.30994152046793" fill="#000000" stroke="none"></rect><rect width="23.157894736842106" height="23.157894736842106" x="210.6432748538012" y="477.30994152046793" fill="#000000" stroke="none"></rect><rect width="23.157894736842106" height="23.157894736842106" x="255.08771929824564" y="477.30994152046793" fill="#000000" stroke="none"></rect><rect width="23.157894736842106" height="23.157894736842106" x="299.5321637426901" y="477.30994152046793" fill="#000000" stroke="none"></rect><rect width="23.157894736842106" height="23.157894736842106" x="343.97660818713456" y="477.30994152046793" fill="#000000" stroke="none"></rect><rect width="23.157894736842106" height="23.157894736842106" x="388.421052631579" y="477.30994152046793" fill="#000000" stroke="none"></rect><rect width="23.157894736842106" height="23.157894736842106" x="432.8654970760235" y="477.30994152046793" fill="#000000" stroke="none"></rect><rect width="23.157894736842106" height="23.157894736842106" x="477.30994152046793" y="477.30994152046793" fill="#000000" stroke="none"></rect><rect width="23.157894736842106" height="23.157894736842106" x="521.7543859649123" y="477.30994152046793" fill="#000000" stroke="none"></rect><rect width="23.157894736842106" height="23.157894736842106" x="566.1988304093568" y="477.30994152046793" fill="#000000" stroke="none"></rect><rect width="23.157894736842106" height="23.157894736842106" x="610.6432748538012" y="477.30994152046793" fill="#000000" stroke="none"></rect><rect width="23.157894736842106" height="23.157894736842106" x="655.0877192982457" y="477.30994152046793" fill="#000000" stroke="none"></rect><rect width="23.157894736842106" height="23.157894736842106" x="699.5321637426902" y="477.30994152046793" fill="#000000" stroke="none"></rect><rect width="23.157894736842106" height="23.157894736842106" x="743.9766081871346" y="477.30994152046793" fill="#000000" stroke="none"></rect><rect width="23.157894736842106" height="23.157894736842106" x="788.4210526315791" y="477.30994152046793" fill="#000000" stroke="none"></rect><rect width="23.157894736842106" height="23.157894736842106" x="-11.578947368421053" y="521.7543859649123" fill="#000000" stroke="none"></rect><rect width="23.157894736842106" height="23.157894736842106" x="32.86549707602339" y="521.7543859649123" fill="#000000" stroke="none"></rect><rect width="23.157894736842106" height="23.157894736842106" x="77.30994152046783" y="521.7543859649123" fill="#000000" stroke="none"></rect><rect width="23.157894736842106" height="23.157894736842106" x="121.75438596491226" y="521.7543859649123" fill="#000000" stroke="none"></rect><rect width="23.157894736842106" height="23.157894736842106" x="166.19883040935673" y="521.7543859649123" fill="#000000" stroke="none"></rect><rect width="23.157894736842106" height="23.157894736842106" x="210.6432748538012" y="521.7543859649123" fill="#000000" stroke="none"></rect><rect width="23.157894736842106" height="23.157894736842106" x="255.08771929824564" y="521.7543859649123" fill="#000000" stroke="none"></rect><rect width="23.157894736842106" height="23.157894736842106" x="299.5321637426901" y="521.7543859649123" fill="#000000" stroke="none"></rect><rect width="23.157894736842106" height="23.157894736842106" x="343.97660818713456" y="521.7543859649123" fill="#000000" stroke="none"></rect><rect width="23.157894736842106" height="23.157894736842106" x="388.421052631579" y="521.7543859649123" fill="#000000" stroke="none"></rect><rect width="23.157894736842106" height="23.157894736842106" x="432.8654970760235" y="521.7543859649123" fill="#000000" stroke="none"></rect><rect width="23.157894736842106" height="23.157894736842106" x="477.30994152046793" y="521.7543859649123" fill="#000000" stroke="none"></rect><rect width="23.157894736842106" height="23.157894736842106" x="521.7543859649123" y="521.7543859649123" fill="#000000" stroke="none"></rect><rect width="23.157894736842106" height="23.157894736842106" x="566.1988304093568" y="521.7543859649123" fill="#000000" stroke="none"></rect><rect width="23.157894736842106" height="23.157894736842106" x="610.6432748538012" y="521.7543859649123" fill="#000000" stroke="none"></rect><rect width="23.157894736842106" height="23.157894736842106" x="655.0877192982457" y="521.7543859649123" fill="#000000" stroke="none"></rect><rect width="23.157894736842106" height="23.157894736842106" x="699.5321637426902" y="521.7543859649123" fill="#000000" stroke="none"></rect><rect width="23.157894736842106" height="23.157894736842106" x="743.9766081871346" y="521.7543859649123" fill="#000000" stroke="none"></rect><rect width="23.157894736842106" height="23.157894736842106" x="788.4210526315791" y="521.7543859649123" fill="#000000" stroke="none"></rect><rect width="23.157894736842106" height="23.157894736842106" x="-11.578947368421053" y="566.1988304093568" fill="#000000" stroke="none"></rect><rect width="23.157894736842106" height="23.157894736842106" x="32.86549707602339" y="566.1988304093568" fill="#000000" stroke="none"></rect><rect width="23.157894736842106" height="23.157894736842106" x="77.30994152046783" y="566.1988304093568" fill="#000000" stroke="none"></rect><rect width="23.157894736842106" height="23.157894736842106" x="121.75438596491226" y="566.1988304093568" fill="#000000" stroke="none"></rect><rect width="23.157894736842106" height="23.157894736842106" x="166.19883040935673" y="566.1988304093568" fill="#000000" stroke="none"></rect><rect width="23.157894736842106" height="23.157894736842106" x="210.6432748538012" y="566.1988304093568" fill="#000000" stroke="none"></rect><rect width="23.157894736842106" height="23.157894736842106" x="255.08771929824564" y="566.1988304093568" fill="#000000" stroke="none"></rect><rect width="23.157894736842106" height="23.157894736842106" x="299.5321637426901" y="566.1988304093568" fill="#000000" stroke="none"></rect><rect width="23.157894736842106" height="23.157894736842106" x="343.97660818713456" y="566.1988304093568" fill="#000000" stroke="none"></rect><rect width="23.157894736842106" height="23.157894736842106" x="388.421052631579" y="566.1988304093568" fill="#000000" stroke="none"></rect><rect width="23.157894736842106" height="23.157894736842106" x="432.8654970760235" y="566.1988304093568" fill="#000000" stroke="none"></rect><rect width="23.157894736842106" height="23.157894736842106" x="477.30994152046793" y="566.1988304093568" fill="#000000" stroke="none"></rect><rect width="23.157894736842106" height="23.157894736842106" x="521.7543859649123" y="566.1988304093568" fill="#000000" stroke="none"></rect><rect width="23.157894736842106" height="23.157894736842106" x="566.1988304093568" y="566.1988304093568" fill="#000000" stroke="none"></rect><rect width="23.157894736842106" height="23.157894736842106" x="610.6432748538012" y="566.1988304093568" fill="#000000" stroke="none"></rect><rect width="23.157894736842106" height="23.157894736842106" x="655.0877192982457" y="566.1988304093568" fill="#000000" stroke="none"></rect><rect width="23.157894736842106" height="23.157894736842106" x="699.5321637426902" y="566.1988304093568" fill="#000000" stroke="none"></rect><rect width="23.157894736842106" height="23.157894736842106" x="743.9766081871346" y="566.1988304093568" fill="#000000" stroke="none"></rect><rect width="23.157894736842106" height="23.157894736842106" x="788.4210526315791" y="566.1988304093568" fill="#000000" stroke="none"></rect><rect width="23.157894736842106" height="23.157894736842106" x="-11.578947368421053" y="610.6432748538012" fill="#000000" stroke="none"></rect><rect width="23.157894736842106" height="23.157894736842106" x="32.86549707602339" y="610.6432748538012" fill="#000000" stroke="none"></rect><rect width="23.157894736842106" height="23.157894736842106" x="77.30994152046783" y="610.6432748538012" fill="#000000" stroke="none"></rect><rect width="23.157894736842106" height="23.157894736842106" x="121.75438596491226" y="610.6432748538012" fill="#000000" stroke="none"></rect><rect width="23.157894736842106" height="23.157894736842106" x="166.19883040935673" y="610.6432748538012" fill="#000000" stroke="none"></rect><rect width="23.157894736842106" height="23.157894736842106" x="210.6432748538012" y="610.6432748538012" fill="#000000" stroke="none"></rect><rect width="23.157894736842106" height="23.157894736842106" x="255.08771929824564" y="610.6432748538012" fill="#000000" stroke="none"></rect><rect width="23.157894736842106" height="23.157894736842106" x="299.5321637426901" y="610.6432748538012" fill="#000000" stroke="none"></rect><rect width="23.157894736842106" height="23.157894736842106" x="343.97660818713456" y="610.6432748538012" fill="#000000" stroke="none"></rect><rect width="23.157894736842106" height="23.157894736842106" x="388.421052631579" y="610.6432748538012" fill="#000000" stroke="none"></rect><rect width="23.157894736842106" height="23.157894736842106" x="432.8654970760235" y="610.6432748538012" fill="#000000" stroke="none"></rect><rect width="23.157894736842106" height="23.157894736842106" x="477.30994152046793" y="610.6432748538012" fill="#000000" stroke="none"></rect><rect width="23.157894736842106" height="23.157894736842106" x="521.7543859649123" y="610.6432748538012" fill="#000000" stroke="none"></rect><rect width="23.157894736842106" height="23.157894736842106" x="566.1988304093568" y="610.6432748538012" fill="#000000" stroke="none"></rect><rect width="23.157894736842106" height="23.157894736842106" x="610.6432748538012" y="610.6432748538012" fill="#000000" stroke="none"></rect><rect width="23.157894736842106" height="23.157894736842106" x="655.0877192982457" y="610.6432748538012" fill="#000000" stroke="none"></rect><rect width="23.157894736842106" height="23.157894736842106" x="699.5321637426902" y="610.6432748538012" fill="#000000" stroke="none"></rect><rect width="23.157894736842106" height="23.157894736842106" x="743.9766081871346" y="610.6432748538012" fill="#000000" stroke="none"></rect><rect width="23.157894736842106" height="23.157894736842106" x="788.4210526315791" y="610.6432748538012" fill="#000000" stroke="none"></rect><rect width="23.157894736842106" height="23.157894736842106" x="-11.578947368421053" y="655.0877192982457" fill="#000000" stroke="none"></rect><rect width="23.157894736842106" height="23.157894736842106" x="32.86549707602339" y="655.0877192982457" fill="#000000" stroke="none"></rect><rect width="23.157894736842106" height="23.157894736842106" x="77.30994152046783" y="655.0877192982457" fill="#000000" stroke="none"></rect><rect width="23.157894736842106" height="23.157894736842106" x="121.75438596491226" y="655.0877192982457" fill="#000000" stroke="none"></rect><rect width="23.157894736842106" height="23.157894736842106" x="166.19883040935673" y="655.0877192982457" fill="#000000" stroke="none"></rect><rect width="23.157894736842106" height="23.157894736842106" x="210.6432748538012" y="655.0877192982457" fill="#000000" stroke="none"></rect><rect width="23.157894736842106" height="23.157894736842106" x="255.08771929824564" y="655.0877192982457" fill="#000000" stroke="none"></rect><rect width="23.157894736842106" height="23.157894736842106" x="299.5321637426901" y="655.0877192982457" fill="#000000" stroke="none"></rect><rect width="23.157894736842106" height="23.157894736842106" x="343.97660818713456" y="655.0877192982457" fill="#000000" stroke="none"></rect><rect width="23.157894736842106" height="23.157894736842106" x="388.421052631579" y="655.0877192982457" fill="#000000" stroke="none"></rect><rect width="23.157894736842106" height="23.157894736842106" x="432.8654970760235" y="655.0877192982457" fill="#000000" stroke="none"></rect><rect width="23.157894736842106" height="23.157894736842106" x="477.30994152046793" y="655.0877192982457" fill="#000000" stroke="none"></rect><rect width="23.157894736842106" height="23.157894736842106" x="521.7543859649123" y="655.0877192982457" fill="#000000" stroke="none"></rect><rect width="23.157894736842106" height="23.157894736842106" x="566.1988304093568" y="655.0877192982457" fill="#000000" stroke="none"></rect><rect width="23.157894736842106" height="23.157894736842106" x="610.6432748538012" y="655.0877192982457" fill="#000000" stroke="none"></rect><rect width="23.157894736842106" height="23.157894736842106" x="655.0877192982457" y="655.0877192982457" fill="#000000" stroke="none"></rect><rect width="23.157894736842106" height="23.157894736842106" x="699.5321637426902" y="655.0877192982457" fill="#000000" stroke="none"></rect><rect width="23.157894736842106" height="23.157894736842106" x="743.9766081871346" y="655.0877192982457" fill="#000000" stroke="none"></rect><rect width="23.157894736842106" height="23.157894736842106" x="788.4210526315791" y="655.0877192982457" fill="#000000" stroke="none"></rect><rect width="23.157894736842106" height="23.157894736842106" x="-11.578947368421053" y="699.5321637426902" fill="#000000" stroke="none"></rect><rect width="23.157894736842106" height="23.157894736842106" x="32.86549707602339" y="699.5321637426902" fill="#000000" stroke="none"></rect><rect width="23.157894736842106" height="23.157894736842106" x="77.30994152046783" y="699.5321637426902" fill="#000000" stroke="none"></rect><rect width="23.157894736842106" height="23.157894736842106" x="121.75438596491226" y="699.5321637426902" fill="#000000" stroke="none"></rect><rect width="23.157894736842106" height="23.157894736842106" x="166.19883040935673" y="699.5321637426902" fill="#000000" stroke="none"></rect><rect width="23.157894736842106" height="23.157894736842106" x="210.6432748538012" y="699.5321637426902" fill="#000000" stroke="none"></rect><rect width="23.157894736842106" height="23.157894736842106" x="255.08771929824564" y="699.5321637426902" fill="#000000" stroke="none"></rect><rect width="23.157894736842106" height="23.157894736842106" x="299.5321637426901" y="699.5321637426902" fill="#000000" stroke="none"></rect><rect width="23.157894736842106" height="23.157894736842106" x="343.97660818713456" y="699.5321637426902" fill="#000000" stroke="none"></rect><rect width="23.157894736842106" height="23.157894736842106" x="388.421052631579" y="699.5321637426902" fill="#000000" stroke="none"></rect><rect width="23.157894736842106" height="23.157894736842106" x="432.8654970760235" y="699.5321637426902" fill="#000000" stroke="none"></rect><rect width="23.157894736842106" height="23.157894736842106" x="477.30994152046793" y="699.5321637426902" fill="#000000" stroke="none"></rect><rect width="23.157894736842106" height="23.157894736842106" x="521.7543859649123" y="699.5321637426902" fill="#000000" stroke="none"></rect><rect width="23.157894736842106" height="23.157894736842106" x="566.1988304093568" y="699.5321637426902" fill="#000000" stroke="none"></rect><rect width="23.157894736842106" height="23.157894736842106" x="610.6432748538012" y="699.5321637426902" fill="#000000" stroke="none"></rect><rect width="23.157894736842106" height="23.157894736842106" x="655.0877192982457" y="699.5321637426902" fill="#000000" stroke="none"></rect><rect width="23.157894736842106" height="23.157894736842106" x="699.5321637426902" y="699.5321637426902" fill="#000000" stroke="none"></rect><rect width="23.157894736842106" height="23.157894736842106" x="743.9766081871346" y="699.5321637426902" fill="#000000" stroke="none"></rect><rect width="23.157894736842106" height="23.157894736842106" x="788.4210526315791" y="699.5321637426902" fill="#000000" stroke="none"></rect><rect width="23.157894736842106" height="23.157894736842106" x="-11.578947368421053" y="743.9766081871346" fill="#000000" stroke="none"></rect><rect width="23.157894736842106" height="23.157894736842106" x="32.86549707602339" y="743.9766081871346" fill="#000000" stroke="none"></rect><rect width="23.157894736842106" height="23.157894736842106" x="77.30994152046783" y="743.9766081871346" fill="#000000" stroke="none"></rect><rect width="23.157894736842106" height="23.157894736842106" x="121.75438596491226" y="743.9766081871346" fill="#000000" stroke="none"></rect><rect width="23.157894736842106" height="23.157894736842106" x="166.19883040935673" y="743.9766081871346" fill="#000000" stroke="none"></rect><rect width="23.157894736842106" height="23.157894736842106" x="210.6432748538012" y="743.9766081871346" fill="#000000" stroke="none"></rect><rect width="23.157894736842106" height="23.157894736842106" x="255.08771929824564" y="743.9766081871346" fill="#000000" stroke="none"></rect><rect width="23.157894736842106" height="23.157894736842106" x="299.5321637426901" y="743.9766081871346" fill="#000000" stroke="none"></rect><rect width="23.157894736842106" height="23.157894736842106" x="343.97660818713456" y="743.9766081871346" fill="#000000" stroke="none"></rect><rect width="23.157894736842106" height="23.157894736842106" x="388.421052631579" y="743.9766081871346" fill="#000000" stroke="none"></rect><rect width="23.157894736842106" height="23.157894736842106" x="432.8654970760235" y="743.9766081871346" fill="#000000" stroke="none"></rect><rect width="23.157894736842106" height="23.157894736842106" x="477.30994152046793" y="743.9766081871346" fill="#000000" stroke="none"></rect><rect width="23.157894736842106" height="23.157894736842106" x="521.7543859649123" y="743.9766081871346" fill="#000000" stroke="none"></rect><rect width="23.157894736842106" height="23.157894736842106" x="566.1988304093568" y="743.9766081871346" fill="#000000" stroke="none"></rect><rect width="23.157894736842106" height="23.157894736842106" x="610.6432748538012" y="743.9766081871346" fill="#000000" stroke="none"></rect><rect width="23.157894736842106" height="23.157894736842106" x="655.0877192982457" y="743.9766081871346" fill="#000000" stroke="none"></rect><rect width="23.157894736842106" height="23.157894736842106" x="699.5321637426902" y="743.9766081871346" fill="#000000" stroke="none"></rect><rect width="23.157894736842106" height="23.157894736842106" x="743.9766081871346" y="743.9766081871346" fill="#000000" stroke="none"></rect><rect width="23.157894736842106" height="23.157894736842106" x="788.4210526315791" y="743.9766081871346" fill="#000000" stroke="none"></rect><rect width="23.157894736842106" height="23.157894736842106" x="-11.578947368421053" y="788.4210526315791" fill="#000000" stroke="none"></rect><rect width="23.157894736842106" height="23.157894736842106" x="32.86549707602339" y="788.4210526315791" fill="#000000" stroke="none"></rect><rect width="23.157894736842106" height="23.157894736842106" x="77.30994152046783" y="788.4210526315791" fill="#000000" stroke="none"></rect><rect width="23.157894736842106" height="23.157894736842106" x="121.75438596491226" y="788.4210526315791" fill="#000000" stroke="none"></rect><rect width="23.157894736842106" height="23.157894736842106" x="166.19883040935673" y="788.4210526315791" fill="#000000" stroke="none"></rect><rect width="23.157894736842106" height="23.157894736842106" x="210.6432748538012" y="788.4210526315791" fill="#000000" stroke="none"></rect><rect width="23.157894736842106" height="23.157894736842106" x="255.08771929824564" y="788.4210526315791" fill="#000000" stroke="none"></rect><rect width="23.157894736842106" height="23.157894736842106" x="299.5321637426901" y="788.4210526315791" fill="#000000" stroke="none"></rect><rect width="23.157894736842106" height="23.157894736842106" x="343.97660818713456" y="788.4210526315791" fill="#000000" stroke="none"></rect><rect width="23.157894736842106" height="23.157894736842106" x="388.421052631579" y="788.4210526315791" fill="#000000" stroke="none"></rect><rect width="23.157894736842106" height="23.157894736842106" x="432.8654970760235" y="788.4210526315791" fill="#000000" stroke="none"></rect><rect width="23.157894736842106" height="23.157894736842106" x="477.30994152046793" y="788.4210526315791" fill="#000000" stroke="none"></rect><rect width="23.157894736842106" height="23.157894736842106" x="521.7543859649123" y="788.4210526315791" fill="#000000" stroke="none"></rect><rect width="23.157894736842106" height="23.157894736842106" x="566.1988304093568" y="788.4210526315791" fill="#000000" stroke="none"></rect><rect width="23.157894736842106" height="23.157894736842106" x="610.6432748538012" y="788.4210526315791" fill="#000000" stroke="none"></rect><rect width="23.157894736842106" height="23.157894736842106" x="655.0877192982457" y="788.4210526315791" fill="#000000" stroke="none"></rect><rect width="23.157894736842106" height="23.157894736842106" x="699.5321637426902" y="788.4210526315791" fill="#000000" stroke="none"></rect><rect width="23.157894736842106" height="23.157894736842106" x="743.9766081871346" y="788.4210526315791" fill="#000000" stroke="none"></rect><rect width="23.157894736842106" height="23.157894736842106" x="788.4210526315791" y="788.4210526315791" fill="#000000" stroke="none"></rect></g></svg>