<svg xmlns="http://www.w3.org/2000/svg" viewBox="0 0 800 800" width="800" height="800"><path d="M-11.579-11.579h23.158v23.158h-23.158zm44.444 0h23.158v23.158H32.865zm44.445 0h23.158v23.158H77.31zm44.444 0h23.158v23.158h-23.158zm44.445 0h23.158v23.158h-23.158zm44.444 0h23.158v23.158h-23.158zm44.445 0h23.158v23.158h-23.158zm44.444 0h23.158v23.158h-23.158zm44.445 0h23.158v23.158h-23.158zm44.444 0h23.158v23.158h-23.158zm44.444 0h23.158v23.158h-23.158zm44.445 0h23.158v23.158H477.31zm44.444 0h23.158v23.158h-23.158zm44.445 0h23.158v23.158h-23.158zm44.444 0h23.158v23.158h-23.158zm44.445 0h23.158v23.158h-23.158zm44.444 0h23.158v23.158h-23.158zm44.445 0h23.158v23.158h-23.158zm44.444 0h23.158v23.158h-23.158zm-800 44.444h23.158v23.158h-23.158zm44.444 0h23.158v23.158H32.865zm44.445 0h23.158v23.158H77.31zm44.444 0h23.158v23.158h-23.158zm44.445 0h23.158v23.158h-23.158zm44.444 0h23.158v23.158h-23.158zm44.445 0h23.158v23.158h-23.158zm44.444 0h23.158v23.158h-23.158zm44.445 0h23.158v23.158h-23.158zm44.444 0h23.158v23.158h-23.158zm44.444 0h23.158v23.158h-23.158zm44.445 0h23.158v23.158H477.31zm44.444 0h23.158v23.158h-23.158zm44.445 0h23.158v23.158h-23.158zm44.444 0h23.158v23.158h-23.158zm44.445 0h23.158v23.158h-23.158zm44.444 0h23.158v23.158h-23.158zm44.445 0h23.158v23.158h-23.158zm44.444 0h23.158v23.158h-23.158zm-800 44.445h23.158v23.158h-23.158zm44.444 0h23.158v23.158H32.865zm44.445 0h23.158v23.158H77.31zm44.444 0h23.158v23.158h-23.158zm44.445 0h23.158v23.158h-23.158zm44.444 0h23.158v23.158h-23.158zm44.445 0h23.158v23.158h-23.158zm44.444 0h23.158v23.158h-23.158zm44.445 0h23.158v23.158h-23.158zm44.444 0h23.158v23.158h-23.158zm44.444 0h23.158v23.158h-23.158zm44.445 0h23.158v23.158H477.31zm44.444 0h23.158v23.158h-23.158zm44.445 0h23.158v23.158h-23.158zm44.444 0h23.158v23.158h-23.158zm44.445 0h23.158v23.158h-23.158zm44.444 0h23.158v23.158h-23.158zm44.445 0h23.158v23.158h-23.158zm44.444 0h23.158v23.158h-23.158zm-800 44.444h23.158v23.158h-23.158zm44.444 0h23.158v23.158H32.865zm44.445 0h23.158v23.158H77.31zm44.444 0h23.158v23.158h-23.158zm44.445 0h23.158v23.158h-23.158zm44.444 0h23.158v23.158h-23.158zm44.445 0h23.158v23.158h-23.158zm44.444 0h23.158v23.158h-23.158zm44.445 0h23.158v23.158h-23.158zm44.444 0h23.158v23.158h-23.158zm44.444 0h23.158v23.158h-23.158zm44.445 0h23.158v23.158H477.31zm44.444 0h23.158v23.158h-23.158zm44.445 0h23.158v23.158h-23.158zm44.444 0h23.158v23.158h-23.158zm44.445 0h23.158v23.158h-23.158zm44.444 0h23.158v23.158h-23.158zm44.445 0h23.158v23.158h-23.158zm44.444 0h23.158v23.158h-23.158zm-800 44.445h23.158v23.158h-23.158zm44.444 0h23.158v23.158H32.865zm44.445 0h23.158v23.158H77.31zm44.444 0h23.158v23.158h-23.158zm44.445 0h23.158v23.158h-23.158zm44.444 0h23.158v23.158h-23.158zm44.445 0h23.158v23.158h-23.158zm44.444 0h23.158v23.158h-23.158zm44.445 0h23.158v23.158h-23.158zm44.444 0h23.158v23.158h-23.158zm44.444 0h23.158v23.158h-23.158zm44.445 0h23.158v23.158H477.31zm44.444 0h23.158v23.158h-23.158zm44.445 0h23.158v23.158h-23.158zm44.444 0h23.158v23.158h-23.158zm44.445 0h23.158v23.158h-23.158zm44.444 0h23.158v23.158h-23.158zm44.445 0h23.158v23.158h-23.158zm44.444 0h23.158v23.158h-23.158zm-800 44.444h23.158v23.158h-23.158zm44.444 0h23.158v23.158H32.865zm44.445 0h23.158v23.158H77.31zm44.444 0h23.158v23.158h-23.158zm44.445 0h23.158v23.158h-23.158zm44.444 0h23.158v23.158h-23.158zm44.445 0h23.158v23.158h-23.158zm44.444 0h23.158v23.158h-23.158zm44.445 0h23.158v23.158h-23.158zm44.444 0h23.158v23.158h-23.158zm44.444 0h23.158v23.158h-23.158zm44.445 0h23.158v23.158H477.31zm44.444 0h23.158v23.158h-23.158zm44.445 0h23.158v23.158h-23.158zm44.444 0h23.158v23.158h-23.158zm44.445 0h23.158v23.158h-23.158zm44.444 0h23.158v23.158h-23.158zm44.445 0h23.158v23.158h-23.158zm44.444 0h23.158v23.158h-23.158zm-800 44.445h23.158v23.158h-23.158zm44.444 0h23.158v23.158H32.865zm44.445 0h23.158v23.158H77.31zm44.444 0h23.158v23.158h-23.158zm44.445 0h23.158v23.158h-23.158zm44.444 0h23.158v23.158h-23.158zm44.445 0h23.158v23.158h-23.158zm44.444 0h23.158v23.158h-23.158zm44.445 0h23.158v23.158h-23.158zm44.444 0h23.158v23.158h-23.158zm44.444 0h23.158v23.158h-23.158zm44.445 0h23.158v23.158H477.31zm44.444 0h23.158v23.158h-23.158zm44.445 0h23.158v23.158h-23.158zm44.444 0h23.158v23.158h-23.158zm44.445 0h23.158v23.158h-23.158zm44.444 0h23.158v23.158h-23.158zm44.445 0h23.158v23.158h-23.158zm44.444 0h23.158v23.158h-23.158zm-800 44.444h23.158v23.158h-23.158zm44.444 0h23.158v23.158H32.865zm44.445 0h23.158v23.158H77.31zm44.444 0h23.158v23.158h-23.158zm44.445 0h23.158v23.158h-23.158zm44.444 0h23.158v23.158h-23.158zm44.445 0h23.158v23.158h-23.158zm44.444 0h23.158v23.158h-23.158zm44.445 0h23.158v23.158h-23.158zm44.444 0h23.158v23.158h-23.158zm44.444 0h23.158v23.158h-23.158zm44.445 0h23.158v23.158H477.31zm44.444 0h23.158v23.158h-23.158zm44.445 0h23.158v23.158h-23.158zm44.444 0h23.158v23.158h-23.158zm44.445 0h23.158v23.158h-23.158zm44.444 0h23.158v23.158h-23.158zm44.445 0h23.158v23.158h-23.158zm44.444 0h23.158v23.158h-23.158zm-800 44.445h23.158v23.158h-23.158zm44.444 0h23.158v23.158H32.865zm44.445 0h23.158v23.158H77.31zm44.444 0h23.158v23.158h-23.158zm44.445 0h23.158v23.158h-23.158zm44.444 0h23.158v23.158h-23.158zm44.445 0h23.158v23.158h-23.158zm44.444 0h23.158v23.158h-23.158zm44.445 0h23.158v23.158h-23.158zm44.444 0h23.158v23.158h-23.158zm44.444 0h23.158v23.158h-23.158zm44.445 0h23.158v23.158H477.31zm44.444 0h23.158v23.158h-23.158zm44.445 0h23.158v23.158h-23.158zm44.444 0h23.158v23.158h-23.158zm44.445 0h23.158v23.158h-23.158zm44.444 0h23.158v23.158h-23.158zm44.445 0h23.158v23.158h-23.158zm44.444 0h23.158v23.158h-23.158zm-800 44.444h23.158v23.158h-23.158zm44.444 0h23.158v23.158H32.865zm44.445 0h23.158v23.158H77.31zm44.444 0h23.158v23.158h-23.158zm44.445 0h23.158v23.158h-23.158zm44.444 0h23.158v23.158h-23.158zm44.445 0h23.158v23.158h-23.158zm44.444 0h23.158v23.158h-23.158zm44.445 0h23.158v23.158h-23.158zm44.444 0h23.158v23.158h-23.158zm44.444 0h23.158v23.158h-23.158zm44.445 0h23.158v23.158H477.31zm44.444 0h23.158v23.158h-23.158zm44.445 0h23.158v23.158h-23.158zm44.444 0h23.158v23.158h-23.158zm44.445 0h23.158v23.158h-23.158zm44.444 0h23.158v23.158h-23.158zm44.445 0h23.158v23.158h-23.158zm44.444 0h23.158v23.158h-23.158zm-800 44.444h23.158v23.158h-23.158zm44.444 0h23.158v23.158H32.865zm44.445 0h23.158v23.158H77.31zm44.444 0h23.158v23.158h-23.158zm44.445 0h23.158v23.158h-23.158zm44.444 0h23.158v23.158h-23.158zm44.445 0h23.158v23.158h-23.158zm44.444 0h23.158v23.158h-23.158zm44.445 0h23.158v23.158h-23.158zm44.444 0h23.158v23.158h-23.158zm44.444 0h23.158v23.158h-23.158zm44.445 0h23.158v23.158H477.31zm44.444 0h23.158v23.158h-23.158zm44.445 0h23.158v23.158h-23.158zm44.444 0h23.158v23.158h-23.158zm44.445 0h23.158v23.158h-23.158zm44.444 0h23.158v23.158h-23.158zm44.445 0h23.158v23.158h-23.158zm44.444 0h23.158v23.158h-23.158zm-800 44.445h23.158v23.158h-23.158zm44.444 0h23.158v23.158H32.865zm44.445 0h23.158v23.158H77.31zm44.444 0h23.158v23.158h-23.158zm44.445 0h23.158v23.158h-23.158zm44.444 0h23.158v23.158h-23.158zm44.445 0h23.158v23.158h-23.158zm44.444 0h23.158v23.158h-23.158zm44.445 0h23.158v23.158h-23.158zm44.444 0h23.158v23.158h-23.158zm44.444 0h23.158v23.158h-23.158zm44.445 0h23.158v23.158H477.31zm44.444 0h23.158v23.158h-23.158zm44.445 0h23.158v23.158h-23.158zm44.444 0h23.158v23.158h-23.158zm44.445 0h23.158v23.158h-23.158zm44.444 0h23.158v23.158h-23.158zm44.445 0h23.158v23.158h-23.158zm44.444 0h23.158v23.158h-23.158zm-800 44.444h23.158v23.158h-23.158zm44.444 0h23.158v23.158H32.865zm44.445 0h23.158v23.158H77.31zm44.444 0h23.158v23.158h-23.158zm44.445 0h23.158v23.158h-23.158zm44.444 0h23.158v23.158h-23.158zm44.445 0h23.158v23.158h-23.158zm44.444 0h23.158v23.158h-23.158zm44.445 0h23.158v23.158h-23.158zm44.444 0h23.158v23.158h-23.158zm44.444 0h23.158v23.158h-23.158zm44.445 0h23.158v23.158H477.31zm44.444 0h23.158v23.158h-23.158zm44.445 0h23.158v23.158h-23.158zm44.444 0h23.158v23.158h-23.158zm44.445 0h23.158v23.158h-23.158zm44.444 0h23.158v23.158h-23.158zm44.445 0h23.158v23.158h-23.158zm44.444 0h23.158v23.158h-23.158zm-800 44.445h23.158v23.158h-23.158zm44.444 0h23.158v23.158H32.865zm44.445 0h23.158v23.158H77.31zm44.444 0h23.158v23.158h-23.158zm44.445 0h23.158v23.158h-23.158zm44.444 0h23.158v23.158h-23.158zm44.445 0h23.158v23.158h-23.158zm44.444 0h23.158v23.158h-23.158zm44.445 0h23.158v23.158h-23.158zm44.444 0h23.158v23.158h-23.158zm44.444 0h23.158v23.158h-23.158zm44.445 0h23.158v23.158H477.31zm44.444 0h23.158v23.158h-23.158zm44.445 0h23.158v23.158h-23.158zm44.444 0h23.158v23.158h-23.158zm44.445 0h23.158v23.158h-23.158zm44.444 0h23.158v23.158h-23.158zm44.445 0h23.158v23.158h-23.158zm44.444 0h23.158v23.158h-23.158zm-800 44.444h23.158v23.158h-23.158zm44.444 0h23.158v23.158H32.865zm44.445 0h23.158v23.158H77.31zm44.444 0h23.158v23.158h-23.158zm44.445 0h23.158v23.158h-23.158zm44.444 0h23.158v23.158h-23.158zm44.445 0h23.158v23.158h-23.158zm44.444 0h23.158v23.158h-23.158zm44.445 0h23.158v23.158h-23.158zm44.444 0h23.158v23.158h-23.158zm44.444 0h23.158v23.158h-23.158zm44.445 0h23.158v23.158H477.31zm44.444 0h23.158v23.158h-23.158zm44.445 0h23.158v23.158h-23.158zm44.444 0h23.158v23.158h-23.158zm44.445 0h23.158v23.158h-23.158zm44.444 0h23.158v23.158h-23.158zm44.445 0h23.158v23.158h-23.158zm44.444 0h23.158v23.158h-23.158zm-800 44.445h23.158v23.158h-23.158zm44.444 0h23.158v23.158H32.865zm44.445 0h23.158v23.158H77.31zm44.444 0h23.158v23.158h-23.158zm44.445 0h23.158v23.158h-23.158zm44.444 0h23.158v23.158h-23.158zm44.445 0h23.158v23.158h-23.158zm44.444 0h23.158v23.158h-23.158zm44.445 0h23.158v23.158h-23.158zm44.444 0h23.158v23.158h-23.158zm44.444 0h23.158v23.158h-23.158zm44.445 0h23.158v23.158H477.31zm44.444 0h23.158v23.158h-23.158zm44.445 0h23.158v23.158h-23.158zm44.444 0h23.158v23.158h-23.158zm44.445 0h23.158v23.158h-23.158zm44.444 0h23.158v23.158h-23.158zm44.445 0h23.158v23.158h-23.158zm44.444 0h23.158v23.158h-23.158zm-800 44.444h23.158v23.158h-23.158zm44.444 0h23.158v23.158H32.865zm44.445 0h23.158v23.158H77.31zm44.444 0h23.158v23.158h-23.158zm44.445 0h23.158v23.158h-23.158zm44.444 0h23.158v23.158h-23.158zm44.445 0h23.158v23.158h-23.158zm44.444 0h23.158v23.158h-23.158zm44.445 0h23.158v23.158h-23.158zm44.444 0h23.158v23.158h-23.158zm44.444 0h23.158v23.158h-23.158zm44.445 0h23.158v23.158H477.31zm44.444 0h23.158v23.158h-23.158zm44.445 0h23.158v23.158h-23.158zm44.444 0h23.158v23.158h-23.158zm44.445 0h23.158v23.158h-23.158zm44.444 0h23.158v23.158h-23.158zm44.445 0h23.158v23.158h-23.158zm44.444 0h23.158v23.158h-23.158zm-800 44.445h23.158v23.158h-23.158zm44.444 0h23.158v23.158H32.865zm44.445 0h23.158v23.158H77.31zm44.444 0h23.158v23.158h-23.158zm44.445 0h23.158v23.158h-23.158zm44.444 0h23.158v23.158h-23.158zm44.445 0h23.158v23.158h-23.158zm44.444 0h23.158v23.158h-23.158zm44.445 0h23.158v23.158h-23.158zm44.444 0h23.158v23.158h-23.158zm44.444 0h23.158v23.158h-23.158zm44.445 0h23.158v23.158H477.31zm44.444 0h23.158v23.158h-23.158zm44.445 0h23.158v23.158h-23.158zm44.444 0h23.158v23.158h-23.158zm44.445 0h23.158v23.158h-23.158zm44.444 0h23.158v23.158h-23.158zm44.445 0h23.158v23.158h-23.158zm44.444 0h23.158v23.158h-23.158zm-800 44.444h23.158v23.158h-23.158zm44.444 0h23.158v23.158H32.865zm44.445 0h23.158v23.158H77.31zm44.444 0h23.158v23.158h-23.158zm44.445 0h23.158v23.158h-23.158zm44.444 0h23.158v23.158h-23.158zm44.445 0h23.158v23.158h-23.158zm44.444 0h23.158v23.158h-23.158zm44.445 0h23.158v23.158h-23.158zm44.444 0h23.158v23.158h-23.158zm44.444 0h23.158v23.158h-23.158zm44.445 0h23.158v23.158H477.31zm44.444 0h23.158v23.158h-23.158zm44.445 0h23.158v23.158h-23.158zm44.444 0h23.158v23.158h-23.158zm44.445 0h23.158v23.158h-23.158zm44.444 0h23.158v23.158h-23.158zm44.445 0h23.158v23.158h-23.158zm44.444 0h23.158v23.158h-23.158z"/></svg>