<svg xmlns="http://www.w3.org/2000/svg" version="1.1" xmlns:xlink="http://www.w3.org/1999/xlink" xmlns:svgjs="http://svgjs.dev/svgjs" viewBox="0 0 800 800"><rect width="100%" height="100%" fill="hsl(0, 0%, 100%)"></rect><g fill="hsl(0, 0%, 52%)"><rect width="96" height="4" x="627" y="719" rx="2" transform="rotate(48, 675, 721)" opacity="0.89"></rect><rect width="383" height="4" x="325.5" y="430" rx="2" transform="rotate(48, 517, 432)" opacity="0.67"></rect><rect width="310" height="4" x="300" y="358" rx="2" transform="rotate(48, 455, 360)" opacity="0.33"></rect><rect width="88" height="4" x="605" y="88" rx="2" transform="rotate(48, 649, 90)" opacity="0.60"></rect><rect width="165" height="4" x="658.5" y="114" rx="2" transform="rotate(48, 741, 116)" opacity="0.36"></rect><rect width="106" height="4" x="-1" y="592" rx="2" transform="rotate(48, 52, 594)" opacity="0.71"></rect><rect width="432" height="4" x="-21" y="743" rx="2" transform="rotate(48, 195, 745)" opacity="0.87"></rect><rect width="362" height="4" x="330" y="211" rx="2" transform="rotate(48, 511, 213)" opacity="0.39"></rect><rect width="280" height="4" x="616" y="681" rx="2" transform="rotate(48, 756, 683)" opacity="0.74"></rect><rect width="688" height="4" x="52" y="743" rx="2" transform="rotate(48, 396, 745)" opacity="0.24"></rect><rect width="443" height="4" x="455.5" y="316" rx="2" transform="rotate(48, 677, 318)" opacity="0.17"></rect><rect width="576" height="4" x="381" y="591" rx="2" transform="rotate(48, 669, 593)" opacity="0.23"></rect><rect width="142" height="4" x="-34" y="443" rx="2" transform="rotate(48, 37, 445)" opacity="0.32"></rect><rect width="525" height="4" x="31.5" y="685" rx="2" transform="rotate(48, 294, 687)" opacity="0.29"></rect><rect width="87" height="4" x="435.5" y="698" rx="2" transform="rotate(48, 479, 700)" opacity="0.42"></rect><rect width="247" height="4" x="21.5" y="632" rx="2" transform="rotate(48, 145, 634)" opacity="0.99"></rect><rect width="374" height="4" x="432" y="157" rx="2" transform="rotate(48, 619, 159)" opacity="0.60"></rect><rect width="260" height="4" x="99" y="58" rx="2" transform="rotate(48, 229, 60)" opacity="0.67"></rect><rect width="393" height="4" x="413.5" y="524" rx="2" transform="rotate(48, 610, 526)" opacity="0.39"></rect><rect width="369" height="4" x="483.5" y="662" rx="2" transform="rotate(48, 668, 664)" opacity="0.50"></rect><rect width="343" height="4" x="330.5" y="522" rx="2" transform="rotate(48, 502, 524)" opacity="0.95"></rect><rect width="460" height="4" x="44" y="568" rx="2" transform="rotate(48, 274, 570)" opacity="0.82"></rect><rect width="388" height="4" x="370" y="588" rx="2" transform="rotate(48, 564, 590)" opacity="0.26"></rect><rect width="336" height="4" x="588" y="611" rx="2" transform="rotate(48, 756, 613)" opacity="0.37"></rect><rect width="285" height="4" x="237.5" y="227" rx="2" transform="rotate(48, 380, 229)" opacity="0.77"></rect><rect width="245" height="4" x="655.5" y="55" rx="2" transform="rotate(48, 778, 57)" opacity="0.58"></rect><rect width="175" height="4" x="466.5" y="91" rx="2" transform="rotate(48, 554, 93)" opacity="0.50"></rect><rect width="298" height="4" x="-121" y="763" rx="2" transform="rotate(48, 28, 765)" opacity="0.72"></rect><rect width="103" height="4" x="68.5" y="773" rx="2" transform="rotate(48, 120, 775)" opacity="0.26"></rect><rect width="469" height="4" x="529.5" y="529" rx="2" transform="rotate(48, 764, 531)" opacity="0.50"></rect><rect width="276" height="4" x="621" y="410" rx="2" transform="rotate(48, 759, 412)" opacity="0.71"></rect><rect width="183" height="4" x="673.5" y="754" rx="2" transform="rotate(48, 765, 756)" opacity="0.94"></rect><rect width="129" height="4" x="464.5" y="272" rx="2" transform="rotate(48, 529, 274)" opacity="0.99"></rect><rect width="78" height="4" x="41" y="56" rx="2" transform="rotate(48, 80, 58)" opacity="0.42"></rect><rect width="413" height="4" x="251.5" y="254" rx="2" transform="rotate(48, 458, 256)" opacity="0.58"></rect><rect width="276" height="4" x="130" y="313" rx="2" transform="rotate(48, 268, 315)" opacity="0.58"></rect><rect width="342" height="4" x="-51" y="252" rx="2" transform="rotate(48, 120, 254)" opacity="0.94"></rect><rect width="329" height="4" x="-126.5" y="517" rx="2" transform="rotate(48, 38, 519)" opacity="0.18"></rect><rect width="364" height="4" x="6" y="312" rx="2" transform="rotate(48, 188, 314)" opacity="0.23"></rect><rect width="88" height="4" x="0" y="186" rx="2" transform="rotate(48, 44, 188)" opacity="0.16"></rect><rect width="312" height="4" x="608" y="174" rx="2" transform="rotate(48, 764, 176)" opacity="0.65"></rect><rect width="376" height="4" x="563" y="302" rx="2" transform="rotate(48, 751, 304)" opacity="0.31"></rect><rect width="235" height="4" x="552.5" y="399" rx="2" transform="rotate(48, 670, 401)" opacity="0.51"></rect><rect width="164" height="4" x="490" y="190" rx="2" transform="rotate(48, 572, 192)" opacity="0.60"></rect><rect width="299" height="4" x="178.5" y="312" rx="2" transform="rotate(48, 328, 314)" opacity="0.78"></rect><rect width="217" height="4" x="-17.5" y="728" rx="2" transform="rotate(48, 91, 730)" opacity="0.80"></rect><rect width="645" height="4" x="150.5" y="613" rx="2" transform="rotate(48, 473, 615)" opacity="0.17"></rect><rect width="84" height="4" x="644" y="188" rx="2" transform="rotate(48, 686, 190)" opacity="0.60"></rect><rect width="571" height="4" x="-37.5" y="477" rx="2" transform="rotate(48, 248, 479)" opacity="0.44"></rect><rect width="194" height="4" x="467" y="343" rx="2" transform="rotate(48, 564, 345)" opacity="0.45"></rect><rect width="760" height="4" x="-225" y="156" rx="2" transform="rotate(48, 155, 158)" opacity="0.60"></rect><rect width="449" height="4" x="268.5" y="54" rx="2" transform="rotate(48, 493, 56)" opacity="0.88"></rect><rect width="219" height="4" x="3.5" y="327" rx="2" transform="rotate(48, 113, 329)" opacity="0.28"></rect><rect width="157" height="4" x="534.5" y="264" rx="2" transform="rotate(48, 613, 266)" opacity="0.27"></rect><rect width="68" height="4" x="387" y="37" rx="2" transform="rotate(48, 421, 39)" opacity="0.84"></rect><rect width="270" height="4" x="79" y="263" rx="2" transform="rotate(48, 214, 265)" opacity="0.73"></rect><rect width="73" height="4" x="683.5" y="32" rx="2" transform="rotate(48, 720, 34)" opacity="0.49"></rect><rect width="614" height="4" x="8" y="156" rx="2" transform="rotate(48, 315, 158)" opacity="0.64"></rect><rect width="139" height="4" x="692.5" y="237" rx="2" transform="rotate(48, 762, 239)" opacity="0.64"></rect><rect width="85" height="4" x="509.5" y="743" rx="2" transform="rotate(48, 552, 745)" opacity="0.22"></rect><rect width="51" height="4" x="353.5" y="622" rx="2" transform="rotate(48, 379, 624)" opacity="0.88"></rect><rect width="395" height="4" x="420.5" y="762" rx="2" transform="rotate(48, 618, 764)" opacity="0.16"></rect><rect width="212" height="4" x="594" y="772" rx="2" transform="rotate(48, 700, 774)" opacity="0.22"></rect><rect width="56" height="4" x="103" y="461" rx="2" transform="rotate(48, 131, 463)" opacity="0.87"></rect><rect width="107" height="4" x="253.5" y="760" rx="2" transform="rotate(48, 307, 762)" opacity="0.11"></rect><rect width="186" height="4" x="134" y="645" rx="2" transform="rotate(48, 227, 647)" opacity="0.87"></rect><rect width="411" height="4" x="34.5" y="186" rx="2" transform="rotate(48, 240, 188)" opacity="0.74"></rect><rect width="645" height="4" x="23.5" y="497" rx="2" transform="rotate(48, 346, 499)" opacity="0.91"></rect><rect width="92" height="4" x="167" y="418" rx="2" transform="rotate(48, 213, 420)" opacity="0.55"></rect><rect width="209" height="4" x="387.5" y="156" rx="2" transform="rotate(48, 492, 158)" opacity="0.57"></rect><rect width="366" height="4" x="82" y="373" rx="2" transform="rotate(48, 265, 375)" opacity="0.72"></rect><rect width="104" height="4" x="36" y="399" rx="2" transform="rotate(48, 88, 401)" opacity="0.82"></rect><rect width="422" height="4" x="374" y="664" rx="2" transform="rotate(48, 585, 666)" opacity="0.74"></rect><rect width="242" height="4" x="228" y="396" rx="2" transform="rotate(48, 349, 398)" opacity="0.57"></rect><rect width="49" height="4" x="587.5" y="25" rx="2" transform="rotate(48, 612, 27)" opacity="0.23"></rect><rect width="212" height="4" x="-59" y="676" rx="2" transform="rotate(48, 47, 678)" opacity="0.61"></rect><rect width="168" height="4" x="208" y="248" rx="2" transform="rotate(48, 292, 250)" opacity="0.87"></rect><rect width="371" height="4" x="515.5" y="496" rx="2" transform="rotate(48, 701, 498)" opacity="0.38"></rect><rect width="559" height="4" x="130.5" y="144" rx="2" transform="rotate(48, 410, 146)" opacity="0.56"></rect><rect width="681" height="4" x="-2.5" y="57" rx="2" transform="rotate(48, 338, 59)" opacity="0.61"></rect><rect width="402" height="4" x="387" y="416" rx="2" transform="rotate(48, 588, 418)" opacity="0.97"></rect><rect width="103" height="4" x="339.5" y="305" rx="2" transform="rotate(48, 391, 307)" opacity="0.76"></rect><rect width="292" height="4" x="22" y="373" rx="2" transform="rotate(48, 168, 375)" opacity="0.52"></rect><rect width="203" height="4" x="377.5" y="772" rx="2" transform="rotate(48, 479, 774)" opacity="0.41"></rect><rect width="535" height="4" x="-232.5" y="323" rx="2" transform="rotate(48, 35, 325)" opacity="0.46"></rect><rect width="589" height="4" x="-143.5" y="535" rx="2" transform="rotate(48, 151, 537)" opacity="0.36"></rect><rect width="163" height="4" x="346.5" y="473" rx="2" transform="rotate(48, 428, 475)" opacity="0.93"></rect><rect width="353" height="4" x="450.5" y="463" rx="2" transform="rotate(48, 627, 465)" opacity="1.00"></rect></g></svg>