<svg xmlns="http://www.w3.org/2000/svg" version="1.1" xmlns:xlink="http://www.w3.org/1999/xlink" xmlns:svgjs="http://svgjs.dev/svgjs" viewBox="0 0 800 800"><rect width="100%" height="100%" fill="#000000"></rect><g fill="hsl(0, 0%, 10%)"><rect width="524" height="3" x="-94" y="424.5" rx="1.5" transform="rotate(48, 168, 426)"></rect><rect width="1362" height="3" x="-433" y="186.5" rx="1.5" transform="rotate(48, 248, 188)"></rect><rect width="1764" height="3" x="-383" y="52.5" rx="1.5" transform="rotate(48, 499, 54)"></rect><rect width="1401" height="3" x="-641.5" y="341.5" rx="1.5" transform="rotate(48, 59, 343)"></rect><rect width="925" height="3" x="-268.5" y="745.5" rx="1.5" transform="rotate(48, 194, 747)"></rect><rect width="1161" height="3" x="-524.5" y="580.5" rx="1.5" transform="rotate(48, 56, 582)"></rect><rect width="1364" height="3" x="18" y="310.5" rx="1.5" transform="rotate(48, 700, 312)"></rect><rect width="644" height="3" x="90" y="666.5" rx="1.5" transform="rotate(48, 412, 668)"></rect><rect width="1354" height="3" x="-514" y="41.5" rx="1.5" transform="rotate(48, 163, 43)"></rect><rect width="1820" height="3" x="-384" y="721.5" rx="1.5" transform="rotate(48, 526, 723)"></rect><rect width="1665" height="3" x="-148.5" y="744.5" rx="1.5" transform="rotate(48, 684, 746)"></rect><rect width="533" height="3" x="137.5" y="67.5" rx="1.5" transform="rotate(48, 404, 69)"></rect><rect width="1170" height="3" x="-148" y="394.5" rx="1.5" transform="rotate(48, 437, 396)"></rect><rect width="78" height="3" x="395" y="164.5" rx="1.5" transform="rotate(48, 434, 166)"></rect><rect width="379" height="3" x="37.5" y="97.5" rx="1.5" transform="rotate(48, 227, 99)"></rect><rect width="733" height="3" x="-143.5" y="494.5" rx="1.5" transform="rotate(48, 223, 496)"></rect><rect width="50" height="3" x="304" y="343.5" rx="1.5" transform="rotate(48, 329, 345)"></rect><rect width="77" height="3" x="291.5" y="134.5" rx="1.5" transform="rotate(48, 330, 136)"></rect><rect width="788" height="3" x="-102" y="257.5" rx="1.5" transform="rotate(48, 292, 259)"></rect><rect width="1778" height="3" x="-620" y="679.5" rx="1.5" transform="rotate(48, 269, 681)"></rect><rect width="1191" height="3" x="-558.5" y="141.5" rx="1.5" transform="rotate(48, 37, 143)"></rect><rect width="1137" height="3" x="-322.5" y="355.5" rx="1.5" transform="rotate(48, 246, 357)"></rect><rect width="625" height="3" x="427.5" y="61.5" rx="1.5" transform="rotate(48, 740, 63)"></rect><rect width="79" height="3" x="91.5" y="160.5" rx="1.5" transform="rotate(48, 131, 162)"></rect><rect width="1386" height="3" x="3" y="478.5" rx="1.5" transform="rotate(48, 696, 480)"></rect><rect width="819" height="3" x="-99.5" y="35.5" rx="1.5" transform="rotate(48, 310, 37)"></rect><rect width="446" height="3" x="294" y="183.5" rx="1.5" transform="rotate(48, 517, 185)"></rect><rect width="1599" height="3" x="-178.5" y="601.5" rx="1.5" transform="rotate(48, 621, 603)"></rect><rect width="201" height="3" x="170.5" y="435.5" rx="1.5" transform="rotate(48, 271, 437)"></rect><rect width="781" height="3" x="-84.5" y="554.5" rx="1.5" transform="rotate(48, 306, 556)"></rect><rect width="1553" height="3" x="-585.5" y="592.5" rx="1.5" transform="rotate(48, 191, 594)"></rect><rect width="134" height="3" x="84" y="356.5" rx="1.5" transform="rotate(48, 151, 358)"></rect><rect width="466" height="3" x="-175" y="50.5" rx="1.5" transform="rotate(48, 58, 52)"></rect><rect width="862" height="3" x="-384" y="244.5" rx="1.5" transform="rotate(48, 47, 246)"></rect><rect width="784" height="3" x="-11" y="755.5" rx="1.5" transform="rotate(48, 381, 757)"></rect><rect width="1639" height="3" x="-767.5" y="443.5" rx="1.5" transform="rotate(48, 52, 445)"></rect><rect width="712" height="3" x="-289" y="716.5" rx="1.5" transform="rotate(48, 67, 718)"></rect><rect width="305" height="3" x="222.5" y="595.5" rx="1.5" transform="rotate(48, 375, 597)"></rect><rect width="772" height="3" x="228" y="72.5" rx="1.5" transform="rotate(48, 614, 74)"></rect><rect width="145" height="3" x="534.5" y="222.5" rx="1.5" transform="rotate(48, 607, 224)"></rect><rect width="368" height="3" x="304" y="560.5" rx="1.5" transform="rotate(48, 488, 562)"></rect><rect width="1623" height="3" x="-263.5" y="329.5" rx="1.5" transform="rotate(48, 548, 331)"></rect><rect width="481" height="3" x="197.5" y="283.5" rx="1.5" transform="rotate(48, 438, 285)"></rect><rect width="668" height="3" x="37" y="467.5" rx="1.5" transform="rotate(48, 371, 469)"></rect><rect width="102" height="3" x="512" y="453.5" rx="1.5" transform="rotate(48, 563, 455)"></rect><rect width="1152" height="3" x="-207" y="225.5" rx="1.5" transform="rotate(48, 369, 227)"></rect><rect width="1125" height="3" x="197.5" y="398.5" rx="1.5" transform="rotate(48, 760, 400)"></rect><rect width="1022" height="3" x="-304" y="295.5" rx="1.5" transform="rotate(48, 207, 297)"></rect><rect width="1828" height="3" x="-186" y="185.5" rx="1.5" transform="rotate(48, 728, 187)"></rect><rect width="187" height="3" x="58.5" y="250.5" rx="1.5" transform="rotate(48, 152, 252)"></rect><rect width="1120" height="3" x="-431" y="510.5" rx="1.5" transform="rotate(48, 129, 512)"></rect><rect width="1239" height="3" x="131.5" y="628.5" rx="1.5" transform="rotate(48, 751, 630)"></rect></g></svg>