<svg xmlns="http://www.w3.org/2000/svg" width="1207" height="558" fill="none" class="absolute max-w-full opacity-10 right-36" style="top: 0px;"><path fill="#e1e1e1" d="M138.99 235.605c-1.299-1.64-2.759.68-1.899 1.6.859.92 3.288.15 1.899-1.6ZM1206.15 7.385c-1.3-1.64-2.76.68-1.9 1.6.86.92 3.29.15 1.9-1.6ZM790.112 242.985l1.769 4.12c.11.25.3.44.55.55l4.118 1.77c.84.36.84 1.56 0 1.92l-4.118 1.77c-.25.11-.44.3-.55.55l-1.769 4.12c-.36.84-1.559.84-1.919 0l-1.77-4.12c-.11-.25-.299-.44-.549-.55l-4.119-1.77c-.839-.36-.839-1.56 0-1.92l4.119-1.77c.25-.11.439-.3.549-.55l1.77-4.12c.36-.84 1.559-.84 1.919 0ZM335.432 100.265l1.3 3.02c.08.18.22.32.4.4l3.018 1.3c.62.27.62 1.14 0 1.41l-3.018 1.3a.78.78 0 0 0-.4.4l-1.3 3.02a.766.766 0 0 1-1.409 0l-1.3-3.02a.78.78 0 0 0-.4-.4l-3.018-1.3a.767.767 0 0 1 0-1.41l3.018-1.3a.78.78 0 0 0 .4-.4l1.3-3.02a.766.766 0 0 1 1.409 0ZM4.533.315l.89 2.08c.05.12.15.22.28.28l2.079.89c.42.18.42.78 0 .97l-2.08.89c-.12.05-.22.15-.28.28l-.889 2.08c-.18.42-.78.42-.97 0l-.89-2.08a.546.546 0 0 0-.279-.28l-2.08-.89c-.419-.18-.419-.78 0-.97l2.08-.89c.12-.05.22-.15.28-.28l.89-2.08c.18-.42.78-.42.97 0ZM976.588 95.715l.47 1.09c.03.06.08.12.14.14l1.089.47c.22.1.22.41 0 .51l-1.089.47c-.06.03-.12.08-.14.14l-.47 1.09a.28.28 0 0 1-.51 0l-.47-1.09c-.03-.06-.08-.12-.14-.14l-1.089-.47a.28.28 0 0 1 0-.51l1.089-.47c.06-.03.12-.08.14-.14l.47-1.09c.1-.22.41-.22.51 0ZM1067.58 534.605c1.3-1.64 2.76.68 1.9 1.6-.86.92-3.29.15-1.9-1.6ZM.42 306.385c1.3-1.64 2.76.68 1.9 1.6-.86.92-3.29.15-1.9-1.6ZM416.456 541.985l-1.769 4.12c-.11.25-.3.44-.55.55l-4.118 1.77c-.84.36-.84 1.56 0 1.92l4.118 1.77c.25.11.44.3.55.55l1.769 4.12c.36.84 1.559.84 1.919 0l1.769-4.12c.11-.25.3-.44.55-.55l4.119-1.77c.839-.36.839-1.56 0-1.92l-4.119-1.77c-.25-.11-.44-.3-.55-.55l-1.769-4.12c-.36-.84-1.559-.84-1.919 0ZM871.135 399.265l-1.299 3.02a.78.78 0 0 1-.4.4l-3.019 1.3a.767.767 0 0 0 0 1.41l3.019 1.3c.18.08.32.22.4.4l1.299 3.02c.27.62 1.14.62 1.41 0l1.299-3.02a.78.78 0 0 1 .4-.4l3.019-1.3a.767.767 0 0 0 0-1.41l-3.019-1.3a.78.78 0 0 1-.4-.4l-1.299-3.02a.767.767 0 0 0-1.41 0ZM1202.03 299.315l-.89 2.08c-.05.12-.15.22-.28.28l-2.07.89c-.42.18-.42.78 0 .97l2.07.89c.12.05.22.15.28.28l.89 2.08c.18.42.78.42.97 0l.89-2.08c.05-.12.15-.22.28-.28l2.08-.89c.42-.18.42-.78 0-.97l-2.08-.89a.546.546 0 0 1-.28-.28l-.89-2.08c-.18-.42-.78-.42-.97 0ZM229.979 394.715l-.469 1.09c-.03.06-.08.12-.14.14l-1.09.47a.28.28 0 0 0 0 .51l1.09.47c.06.03.12.08.14.14l.469 1.09c.1.22.41.22.51 0l.47-1.09c.03-.06.08-.12.14-.14l1.09-.47a.28.28 0 0 0 0-.51l-1.09-.47c-.06-.03-.12-.08-.14-.14l-.47-1.09a.28.28 0 0 0-.51 0Z"></path></svg>