<svg xmlns="http://www.w3.org/2000/svg" width="1388" height="637" fill="none" class="absolute max-w-full left-20 opacity-20" style="/*! top: 0px; */"><path fill="#e1e1e1" d="M969.301 166.201c-1.299-1.64-2.759.68-1.899 1.6.859.92 3.288.15 1.899-1.6ZM411.891.571c-1.299-1.64-2.759.68-1.899 1.6.86.92 3.289.15 1.899-1.6ZM1241.67 232.921c-2.14-2.7-4.54 1.11-3.13 2.64 1.41 1.53 5.42.25 3.13-2.64ZM1387.32 296.891c-2.14-2.7-4.54 1.11-3.13 2.64 1.41 1.53 5.41.25 3.13-2.64ZM487.362 258.161c-1.299-1.64-2.759.68-1.899 1.6.859.92 3.289.15 1.899-1.6ZM6.592 222.331l1.3 3.02c.08.18.22.32.4.4l3.018 1.3c.62.27.62 1.14 0 1.41l-3.018 1.3a.78.78 0 0 0-.4.4l-1.3 3.02a.767.767 0 0 1-1.409 0l-1.3-3.02a.78.78 0 0 0-.4-.4l-3.018-1.3a.767.767 0 0 1 0-1.41l3.019-1.3a.78.78 0 0 0 .4-.4l1.299-3.02a.767.767 0 0 1 1.41 0ZM770.3 1.601l.889 2.08c.05.12.15.22.28.28l2.079.89c.42.18.42.78 0 .97l-2.079.89c-.12.05-.22.15-.28.28l-.889 2.08c-.18.42-.78.42-.97 0l-.889-2.08a.546.546 0 0 0-.28-.28l-2.08-.89c-.419-.18-.419-.78 0-.97l2.08-.89c.12-.05.22-.15.28-.28l.889-2.08c.18-.42.78-.42.97 0ZM1065.99 232.131l.47 1.09c.03.06.08.12.14.14l1.09.47c.22.1.22.41 0 .51l-1.09.47c-.06.03-.12.08-.14.14l-.47 1.09a.28.28 0 0 1-.51 0l-.47-1.09c-.03-.06-.08-.12-.14-.14l-1.09-.47a.28.28 0 0 1 0-.51l1.09-.47c.06-.03.12-.08.14-.14l.47-1.09c.1-.22.41-.22.51 0ZM418.706 502.201c1.3-1.64 2.759.68 1.9 1.6-.86.92-3.289.15-1.9-1.6ZM976.115 336.571c1.299-1.64 2.759.68 1.899 1.6-.859.92-3.288.15-1.899-1.6ZM146.334 568.921c2.139-2.7 4.538 1.11 3.129 2.64-1.409 1.53-5.418.25-3.129-2.64ZM.692 632.891c2.139-2.7 4.538 1.11 3.128 2.64-1.409 1.53-5.417.25-3.128-2.64ZM900.645 594.161c1.299-1.64 2.759.68 1.899 1.6-.86.92-3.289.15-1.899-1.6ZM1381.41 558.331l-1.3 3.02c-.08.18-.21.32-.39.4l-3.02 1.3a.767.767 0 0 0 0 1.41l3.02 1.3c.18.08.31.22.39.4l1.3 3.02c.27.62 1.14.62 1.41 0l1.3-3.02a.78.78 0 0 1 .4-.4l3.02-1.3a.767.767 0 0 0 0-1.41l-3.02-1.3a.78.78 0 0 1-.4-.4l-1.3-3.02a.767.767 0 0 0-1.41 0ZM322.015 568.131l-.47 1.09c-.03.06-.08.12-.14.14l-1.09.47a.28.28 0 0 0 0 .51l1.09.47c.06.03.12.08.14.14l.47 1.09c.099.22.409.22.509 0l.47-1.09c.03-.06.08-.12.14-.14l1.09-.47a.28.28 0 0 0 0-.51l-1.09-.47c-.06-.03-.12-.08-.14-.14l-.47-1.09a.279.279 0 0 0-.509 0Z"></path></svg>